<?xml version="1.0" encoding="utf-8"?>
<!-- Generator: Adobe Illustrator 26.0.2, SVG Export Plug-In . SVG Version: 6.00 Build 0)  -->
<svg version="1.1" xmlns="http://www.w3.org/2000/svg" xmlns:xlink="http://www.w3.org/1999/xlink" x="0px" y="0px"
	 viewBox="0 0 1197.83 209.17" style="enable-background:new 0 0 1197.83 209.17;" xml:space="preserve">
<g id="Layer_1">
</g>
<g id="Layer_3">
</g>
<g id="Layer_2">
	<g>
		<path d="M103.25,204.23c-31.74,0-54.76-8.94-74.37-29.27C9.62,154.99,0,130.15,0,100.43c0-28.17,10.89-51.57,31.32-71.99
			C50.94,8.84,73.75,0,101.39,0c19.43,0,44.77,9.35,63.06,22.74l-10.5,12.27c0,0-19.38-19.14-52.97-19.14
			c-21.72,0-41.85,6.1-57.91,22.88C27.29,55.15,15.55,78.28,15.46,100.7c-0.18,23.89,9.52,47.84,21.96,60.27
			c16.06,16.06,33.89,26.76,63.77,26.76c32.89,0,52.55-16.9,52.55-16.9l10.72,10.92C164.45,181.77,134.99,204.23,103.25,204.23z"/>
		<path d="M285.79,182.14c-5.71,7.09-12.95,12.6-21.71,16.51c-8.77,3.92-18.45,5.91-29.07,5.98c-19.62,0.15-34.41-7.03-47.27-19.37
			c-12.78-12.12-19.23-27.58-19.31-45.69c-0.08-18.02,4.64-33.74,18.07-46.23c13.27-12.26,30.25-19.99,49.95-19.99
			c10.29,0,21.64,3.37,29.96,7.17c8.32,3.81,13.42,9.16,19.37,16.32V77.42h15.59v124h-15.59V182.14z M285.79,139.7
			c0.08-12.56-2.44-26.48-12.73-36.45c-9.89-9.6-23.98-15.38-37.08-15.46c-14.07-0.15-26.77,4.5-36.9,14.32
			c-9.89,9.53-15.5,22.56-15.66,36.89c-0.08,13.52,5.91,27.63,15.6,36.93c9.69,9.31,21.85,14.04,36.49,14.18
			c13.43,0.07,25.21-4.88,35.34-14.85C280.64,165.52,285.63,153.66,285.79,139.7z"/>
		<path d="M330.1,202.37V1.24h15.65v201.14H330.1z"/>
		<path d="M422.68,209.17L360.44,77.25h17.81l44.01,96.4l42.03-96.4h18.18L422.68,209.17z"/>
		<path d="M501.96,202.37V77.37h16.71v125.01H501.96z M519.66,10.1c0,5.16-4.19,9.35-9.35,9.35c-5.16,0-9.35-4.19-9.35-9.35
			s4.19-9.35,9.35-9.35C515.48,0.75,519.66,4.93,519.66,10.1z"/>
		<path d="M1054.26,202.37V77.37h16.71v125.01H1054.26z M1071.97,10.1c0,5.16-4.19,9.35-9.35,9.35s-9.35-4.19-9.35-9.35
			s4.19-9.35,9.35-9.35S1071.97,4.93,1071.97,10.1z"/>
		<path d="M543.87,77.37h14.82l0.09,11.34c5.53-5.51,12.56-15.96,37.46-15.96c32.94,0,48.46,31.53,48.46,52.35v77.28H630v-67.06
			c0-13.13,0.21-48.56-36.89-48.56c-20.61,0-34.21,19.78-34.21,34.41l0.21,81.2h-15.23V77.37z"/>
		<path d="M1097,77.37h14.82l0.09,11.34c5.53-5.51,12.56-15.96,37.46-15.96c32.94,0,48.46,31.53,48.46,52.35v77.28h-14.7v-67.06
			c0-13.13,0.21-48.56-36.89-48.56c-20.61,0-34.21,19.78-34.21,34.41l0.21,81.2H1097V77.37z"/>
		<path d="M734.71,111.9v90.47H718V0.75h16.71v88.8l83.77-88.8h20.14l-81.33,87.66l78.83,113.96h-20.85L746.79,99.34L734.71,111.9z"
			/>
		<path d="M858.93,202.37V1.65h15.28v200.72H858.93z"/>
		<path d="M1030.04,139.08H912.39c0,6.93,2.79,15.69,5.32,20.95c2.29,4.82,5.78,10.18,11.31,15.08c9.4,8.35,21.31,13.5,34.9,13.5
			c9.87,0,20.01-3.23,28.06-8.35c7.35-4.74,14.04-11.3,18.47-19.81l12.75,5.69c-4.06,8.89-9.56,17.45-20.78,25.05
			c-10.9,7.45-23.58,11.18-38.03,11.18c-19.12,0-35.19-6.38-48.22-19.14c-13.03-12.76-19.55-28.28-19.55-46.57
			c0-19.27,6.36-34.94,19.07-47.02c12.72-12.08,29.18-18.19,49.41-18.35c19.11-0.07,35.03,6.4,47.75,19.42
			c12.48,12.8,17.19,26.77,17.19,47.24V139.08z M1011.56,123.18c0-6.39-11.28-37.92-49.25-37.92c-28.34,0-45.58,25.35-47.4,37.92
			H1011.56z"/>
	</g>
</g>
</svg>
