<?xml version="1.0" encoding="utf-8"?>
<!-- Generator: Adobe Illustrator 26.0.2, SVG Export Plug-In . SVG Version: 6.00 Build 0)  -->
<svg version="1.1" xmlns="http://www.w3.org/2000/svg" xmlns:xlink="http://www.w3.org/1999/xlink" x="0px" y="0px"
	 viewBox="0 0 1182.87 408.23" style="enable-background:new 0 0 1182.87 408.23;" xml:space="preserve">
<g id="Layer_1">
</g>
<g id="Layer_3">
</g>
<g id="Layer_2">
	<g>
		<g>
			<path d="M541.07,271.16h-88.31l-22.31,63.54h-29.08l81.85-222h27.39l81.85,222h-29.07L541.07,271.16z M460.91,247.63h72
				l-35.54-101.23h-0.93L460.91,247.63z"/>
			<path d="M927.88,190.55c13.13,15.59,19.69,36,19.69,61.23s-6.51,45.64-19.54,61.23c-13.03,15.49-30,23.23-50.92,23.23
				c-24.31,0-41.95-9.49-52.93-28.46h-0.61v91.04h-26.77v-225.6h25.39v22.56h0.61c4.82-8.62,12.1-15.54,21.85-20.77
				c9.74-5.13,20.36-7.69,31.85-7.69C897.72,167.32,914.85,175.06,927.88,190.55z M906.8,295.93c8.92-11.08,13.39-25.79,13.39-44.15
				c0-18.25-4.46-32.92-13.39-44c-8.82-11.08-20.57-16.62-35.23-16.62c-14.26,0-25.85,5.59-34.77,16.77
				c-8.92,11.18-13.38,25.8-13.38,43.85c0,18.05,4.46,32.67,13.38,43.85c8.82,11.18,20.41,16.77,34.77,16.77
				C886.23,312.39,897.97,306.91,906.8,295.93z"/>
			<path d="M745.53,190.55c13.13,15.59,19.69,36,19.69,61.23s-6.51,45.64-19.54,61.23c-13.03,15.49-30,23.23-50.92,23.23
				c-24.31,0-41.95-9.49-52.93-28.46h-0.61v91.04h-26.77v-225.6h25.39v22.56h0.61c4.82-8.62,12.1-15.54,21.85-20.77
				c9.74-5.13,20.36-7.69,31.85-7.69C715.37,167.32,732.5,175.06,745.53,190.55z M724.45,295.93c8.92-11.08,13.39-25.79,13.39-44.15
				c0-18.25-4.46-32.92-13.39-44c-8.82-11.08-20.57-16.62-35.23-16.62c-14.26,0-25.85,5.59-34.77,16.77
				c-8.92,11.18-13.38,25.8-13.38,43.85c0,18.05,4.46,32.67,13.38,43.85c8.82,11.18,20.41,16.77,34.77,16.77
				C703.88,312.39,715.62,306.91,724.45,295.93z"/>
			<path d="M981.55,98.64h26.77V334.7h-26.77V98.64z"/>
			<path d="M1174.46,328.72c-16.01,8.76-30.08,8.75-47.83,8.75c-30.54,0-86.16-2.77-86.16-85.08c0-25.74,7.11-44.98,20.75-60.47
				c13.64-15.49,29.82-22.06,52.38-22.06c22.16,0,38.75,6.43,51.67,20.99c12.93,14.67,17.6,32.82,17.6,57.85v10.46h-114.71v1.54
				c0,15.79,4.46,28.41,13.38,37.85c8.93,9.44,30.28,16.08,45.06,16.08c10.36,0,34.29-1.57,41.88-6.19L1174.46,328.72z
				 M1068.16,237.78h86.86c-0.31-14.05-6.1-46.92-43.36-46.92C1080.94,190.85,1069.08,223.73,1068.16,237.78z"/>
		</g>
		<path d="M332.53,299.19c-11.61,35.12-29.63,64.71-53.96,90.38c-17.43,18.39-38.89,23.32-61.78,12.5
			c-29.4-13.9-57.69-13.53-86.85,0.25c-19.15,9.05-38.86,8.5-54.26-7.16c-58.35-59.31-87.27-129.59-71.35-213.1
			c9.56-50.15,51.85-84.04,98.35-82.35c13.74,0.5,27.9,4.94,40.77,10.24c17.64,7.27,33.83,7.38,51.09-0.71
			c30.87-14.46,62.57-16.61,93.25-0.16c12.5,6.7,23.03,17.07,36.33,27.2c-31.08,22.67-48.74,49.44-46.08,85.82
			C280.66,257.87,299.97,282.74,332.53,299.19z"/>
		<path d="M246.82,0c5.68,47.26-35.22,94.45-79.35,92.68C156.79,52.91,199.18,2.97,246.82,0z"/>
	</g>
</g>
</svg>
