<svg width="24" height="18" viewBox="0 0 24 18" fill="none" xmlns="http://www.w3.org/2000/svg">
<g clip-path="url(#clip0_1_16)">
<path d="M-1.52588e-05 0H24V17.4H-1.52588e-05V0Z" fill="#E30A17"/>
<path d="M11.1333 8.69998L14.7515 7.42166L12.5152 10.7685V6.63141L14.7515 9.9783L11.1333 8.69998ZM11.38 11.0261C10.9166 11.8225 10.2279 12.4337 9.41746 12.7677C8.60706 13.1017 7.71883 13.1404 6.88645 12.878C6.05406 12.6157 5.32254 12.0664 4.80196 11.3129C4.28139 10.5594 3.99992 9.64245 3.99992 8.69998C3.99992 7.7575 4.28139 6.84052 4.80196 6.08702C5.32254 5.33352 6.05406 4.78427 6.88645 4.52191C7.71883 4.25956 8.60706 4.29829 9.41746 4.63229C10.2279 4.96629 10.9166 5.57748 11.38 6.37389C10.9472 5.85019 10.3786 5.48157 9.74916 5.31671C9.11971 5.15186 8.45909 5.19851 7.85455 5.45052C7.25 5.70253 6.72996 6.14803 6.36312 6.72819C5.99628 7.30836 5.79989 7.99589 5.79989 8.69998C5.79989 9.40407 5.99628 10.0916 6.36312 10.6718C6.72996 11.2519 7.25 11.6974 7.85455 11.9494C8.45909 12.2014 9.11971 12.2481 9.74916 12.0832C10.3786 11.9184 10.9472 11.5498 11.38 11.0261Z" fill="white"/>
</g>
<defs>
<clipPath id="clip0_1_16">
<rect width="24" height="17.4" rx="4" fill="white"/>
</clipPath>
</defs>
</svg>
