<svg width="24" height="18" viewBox="0 0 24 18" fill="none" xmlns="http://www.w3.org/2000/svg">
<path d="M20 0H4C1.79086 0 0 1.79086 0 4V13.1429C0 15.352 1.79086 17.1429 4 17.1429H20C22.2091 17.1429 24 15.352 24 13.1429V4C24 1.79086 22.2091 0 20 0Z" fill="white"/>
<mask id="mask0_35_131" style="mask-type:alpha" maskUnits="userSpaceOnUse" x="0" y="0" width="24" height="18">
<path d="M20 0H4C1.79086 0 0 1.79086 0 4V13.1429C0 15.352 1.79086 17.1429 4 17.1429H20C22.2091 17.1429 24 15.352 24 13.1429V4C24 1.79086 22.2091 0 20 0Z" fill="white"/>
</mask>
<g mask="url(#mask0_35_131)">
<path fill-rule="evenodd" clip-rule="evenodd" d="M24 0H0V1.14286H24V0ZM24 2.28572H0V3.42857H24V2.28572ZM0 4.57143H24V5.71429H0V4.57143ZM24 6.85719H0V7.99999H24V6.85719ZM0 9.14289H24V10.2857H0V9.14289ZM24 11.4286H0V12.5714H24V11.4286ZM0 13.7143H24V14.8572H0V13.7143ZM24 16H0V17.1429H24V16Z" fill="#D02F44"/>
<path d="M10.2857 0H0V8H10.2857V0Z" fill="#46467F"/>
<g filter="url(#filter0_d_35_131)">
<path fill-rule="evenodd" clip-rule="evenodd" d="M1.7145 2.28544C2.03009 2.28544 2.28592 2.0296 2.28592 1.71401C2.28592 1.39842 2.03009 1.14258 1.7145 1.14258C1.3989 1.14258 1.14307 1.39842 1.14307 1.71401C1.14307 2.0296 1.3989 2.28544 1.7145 2.28544ZM4.00021 2.28544C4.3158 2.28544 4.57164 2.0296 4.57164 1.71401C4.57164 1.39842 4.3158 1.14258 4.00021 1.14258C3.68462 1.14258 3.42878 1.39842 3.42878 1.71401C3.42878 2.0296 3.68462 2.28544 4.00021 2.28544ZM6.85735 1.71401C6.85735 2.0296 6.60151 2.28544 6.28592 2.28544C5.97033 2.28544 5.7145 2.0296 5.7145 1.71401C5.7145 1.39842 5.97033 1.14258 6.28592 1.14258C6.60151 1.14258 6.85735 1.39842 6.85735 1.71401ZM8.57164 2.28544C8.88723 2.28544 9.14307 2.0296 9.14307 1.71401C9.14307 1.39842 8.88723 1.14258 8.57164 1.14258C8.25605 1.14258 8.00021 1.39842 8.00021 1.71401C8.00021 2.0296 8.25605 2.28544 8.57164 2.28544ZM3.42878 2.85686C3.42878 3.17246 3.17294 3.42829 2.85735 3.42829C2.54176 3.42829 2.28592 3.17246 2.28592 2.85686C2.28592 2.54127 2.54176 2.28544 2.85735 2.28544C3.17294 2.28544 3.42878 2.54127 3.42878 2.85686ZM5.14307 3.42829C5.45866 3.42829 5.7145 3.17246 5.7145 2.85686C5.7145 2.54127 5.45866 2.28544 5.14307 2.28544C4.82748 2.28544 4.57164 2.54127 4.57164 2.85686C4.57164 3.17246 4.82748 3.42829 5.14307 3.42829ZM8.00021 2.85686C8.00021 3.17246 7.74437 3.42829 7.42878 3.42829C7.11319 3.42829 6.85735 3.17246 6.85735 2.85686C6.85735 2.54127 7.11319 2.28544 7.42878 2.28544C7.74437 2.28544 8.00021 2.54127 8.00021 2.85686ZM8.57164 4.57115C8.88723 4.57115 9.14307 4.31531 9.14307 3.99972C9.14307 3.68413 8.88723 3.42829 8.57164 3.42829C8.25605 3.42829 8.00021 3.68413 8.00021 3.99972C8.00021 4.31531 8.25605 4.57115 8.57164 4.57115ZM6.85735 3.99972C6.85735 4.31531 6.60151 4.57115 6.28592 4.57115C5.97033 4.57115 5.7145 4.31531 5.7145 3.99972C5.7145 3.68413 5.97033 3.42829 6.28592 3.42829C6.60151 3.42829 6.85735 3.68413 6.85735 3.99972ZM4.00021 4.57115C4.3158 4.57115 4.57164 4.31531 4.57164 3.99972C4.57164 3.68413 4.3158 3.42829 4.00021 3.42829C3.68462 3.42829 3.42878 3.68413 3.42878 3.99972C3.42878 4.31531 3.68462 4.57115 4.00021 4.57115ZM2.28592 3.99972C2.28592 4.31531 2.03009 4.57115 1.7145 4.57115C1.3989 4.57115 1.14307 4.31531 1.14307 3.99972C1.14307 3.68413 1.3989 3.42829 1.7145 3.42829C2.03009 3.42829 2.28592 3.68413 2.28592 3.99972ZM2.85735 5.71401C3.17294 5.71401 3.42878 5.45817 3.42878 5.14258C3.42878 4.82699 3.17294 4.57115 2.85735 4.57115C2.54176 4.57115 2.28592 4.82699 2.28592 5.14258C2.28592 5.45817 2.54176 5.71401 2.85735 5.71401ZM5.7145 5.14258C5.7145 5.45817 5.45866 5.71401 5.14307 5.71401C4.82748 5.71401 4.57164 5.45817 4.57164 5.14258C4.57164 4.82699 4.82748 4.57115 5.14307 4.57115C5.45866 4.57115 5.7145 4.82699 5.7145 5.14258ZM7.42878 5.71401C7.74437 5.71401 8.00021 5.45817 8.00021 5.14258C8.00021 4.82699 7.74437 4.57115 7.42878 4.57115C7.11319 4.57115 6.85735 4.82699 6.85735 5.14258C6.85735 5.45817 7.11319 5.71401 7.42878 5.71401ZM9.14307 6.28544C9.14307 6.60099 8.88723 6.85689 8.57164 6.85689C8.25605 6.85689 8.00021 6.60099 8.00021 6.28544C8.00021 5.96984 8.25605 5.71401 8.57164 5.71401C8.88723 5.71401 9.14307 5.96984 9.14307 6.28544ZM6.28592 6.85689C6.60151 6.85689 6.85735 6.60099 6.85735 6.28544C6.85735 5.96984 6.60151 5.71401 6.28592 5.71401C5.97033 5.71401 5.7145 5.96984 5.7145 6.28544C5.7145 6.60099 5.97033 6.85689 6.28592 6.85689ZM4.57164 6.28544C4.57164 6.60099 4.3158 6.85689 4.00021 6.85689C3.68462 6.85689 3.42878 6.60099 3.42878 6.28544C3.42878 5.96984 3.68462 5.71401 4.00021 5.71401C4.3158 5.71401 4.57164 5.96984 4.57164 6.28544ZM1.7145 6.85689C2.03009 6.85689 2.28592 6.60099 2.28592 6.28544C2.28592 5.96984 2.03009 5.71401 1.7145 5.71401C1.3989 5.71401 1.14307 5.96984 1.14307 6.28544C1.14307 6.60099 1.3989 6.85689 1.7145 6.85689Z" fill="url(#paint0_linear_35_131)"/>
</g>
</g>
<defs>
<filter id="filter0_d_35_131" x="1.14307" y="1.14258" width="8" height="7.71431" filterUnits="userSpaceOnUse" color-interpolation-filters="sRGB">
<feFlood flood-opacity="0" result="BackgroundImageFix"/>
<feColorMatrix in="SourceAlpha" type="matrix" values="0 0 0 0 0 0 0 0 0 0 0 0 0 0 0 0 0 0 127 0" result="hardAlpha"/>
<feOffset dy="2"/>
<feColorMatrix type="matrix" values="0 0 0 0 0 0 0 0 0 0 0 0 0 0 0 0 0 0 0.06 0"/>
<feBlend mode="normal" in2="BackgroundImageFix" result="effect1_dropShadow_35_131"/>
<feBlend mode="normal" in="SourceGraphic" in2="effect1_dropShadow_35_131" result="shape"/>
</filter>
<linearGradient id="paint0_linear_35_131" x1="1.14307" y1="1.14258" x2="1.14307" y2="6.85689" gradientUnits="userSpaceOnUse">
<stop stop-color="white"/>
<stop offset="1" stop-color="#F0F0F0"/>
</linearGradient>
</defs>
</svg>
