<?xml version="1.0" encoding="utf-8"?>
<!-- Generator: Adobe Illustrator 26.0.2, SVG Export Plug-In . SVG Version: 6.00 Build 0)  -->
<svg version="1.1" xmlns="http://www.w3.org/2000/svg" xmlns:xlink="http://www.w3.org/1999/xlink" x="0px" y="0px"
	 viewBox="0 0 1141.09 380.28" style="enable-background:new 0 0 1141.09 380.28;" xml:space="preserve">
<g id="Layer_1">
</g>
<g id="Layer_3">
</g>
<g id="Layer_2">
	<g>
		<g>
			<g>
				<path d="M86.05,129.59c11.85-27.4,39.25-98.73,43.74-113.44c1.02-3.07,1.84-5.93,1.84-7.77c0-1.63-0.62-3.68-2.66-4.7
					c-2.45-0.82-5.52-0.82-7.77-0.82c-1.23,0-2.25-0.2-2.25-1.23c0-1.22,1.23-1.63,4.5-1.63c8.17,0,17.57,0.61,20.03,0.61
					c1.23,0,10.02-0.61,15.94-0.61c2.25,0,3.48,0.41,3.48,1.43c0,1.02-0.82,1.43-2.45,1.43c-1.43,0-5.93,0-9.81,2.45
					c-2.65,1.85-5.72,5.32-11.23,19.22c-2.25,5.72-12.47,30.25-22.9,55.4c-12.46,29.84-21.66,51.91-26.36,61.92
					c-5.72,12.27-6.54,15.53-8.59,15.53c-2.45,0-3.47-2.86-7.35-12.67L24.12,19.41C19.62,7.96,16.56,5.72,9.4,3.68
					C6.34,2.86,2.86,2.86,1.64,2.86C0.41,2.86,0,2.24,0,1.43C0,0.2,2.04,0,5.31,0c9.81,0,21.46,0.61,23.92,0.61
					C31.27,0.61,40.47,0,48.24,0c3.67,0,5.52,0.41,5.52,1.43c0,1.02-0.62,1.43-2.04,1.43c-2.25,0-5.93,0.21-7.77,1.03
					c-2.25,1.02-2.66,2.65-2.66,4.08c0,2.66,2.46,9,5.52,16.97L86.05,129.59z"/>
				<path d="M206.83,101.34c0,17.59,0,32.06,0.92,39.74c0.55,5.31,1.64,9.34,7.14,10.07c2.57,0.37,6.59,0.73,8.24,0.73
					c1.1,0,1.47,0.55,1.47,1.1c0,0.92-0.92,1.47-2.93,1.47c-10.07,0-21.61-0.55-22.53-0.55c-0.91,0-12.45,0.55-17.95,0.55
					c-2.01,0-2.93-0.37-2.93-1.47c0-0.55,0.37-1.1,1.47-1.1c1.65,0,3.85-0.36,5.49-0.73c3.66-0.73,4.57-4.76,5.31-10.07
					c0.92-7.69,0.92-22.16,0.92-39.74V69.12c0-28.57,0-33.7-0.36-39.56c-0.36-6.22-2.2-9.34-6.23-10.25
					c-2.01-0.55-4.39-0.73-5.68-0.73c-0.73,0-1.46-0.37-1.46-1.1c0-1.1,0.92-1.47,2.93-1.47c6.04,0,17.58,0.55,18.49,0.55
					c0.92,0,12.46-0.55,17.95-0.55c2.01,0,2.93,0.36,2.93,1.47c0,0.73-0.74,1.1-1.46,1.1c-1.28,0-2.39,0.19-4.58,0.55
					c-4.95,0.92-6.41,4.03-6.78,10.43c-0.36,5.86-0.36,11-0.36,39.56V101.34z"/>
				<path d="M264.9,137.24c-17.77-15.93-22.16-36.81-22.16-54.21c0-12.27,4.21-33.7,20.51-49.99c10.99-10.99,27.65-19.6,55.86-19.6
					c7.32,0,17.58,0.55,26.55,2.21c6.96,1.28,12.82,2.38,18.67,2.74c2.02,0.18,2.38,0.91,2.38,2.02c0,1.47-0.55,3.66-0.92,10.26
					c-0.37,6.04-0.37,16.11-0.55,18.86c-0.18,2.74-0.55,3.85-1.65,3.85c-1.28,0-1.46-1.28-1.46-3.85c0-7.15-2.93-14.65-7.69-18.68
					c-6.41-5.49-20.51-10.43-36.63-10.43c-24.36,0-35.71,7.14-42.12,13.37c-13.37,12.83-16.48,29.12-16.48,47.79
					c0,34.99,26.91,67.04,66.11,67.04c13.73,0,24.54-1.65,31.86-9.16c3.85-4.03,6.23-12.08,6.77-15.38
					c0.37-2.02,0.74-2.74,1.84-2.74c0.92,0,1.28,1.27,1.28,2.74c0,1.28-2.2,17.22-4.03,23.43c-1.1,3.49-1.47,3.85-4.76,5.31
					c-7.33,2.93-21.24,4.22-32.96,4.22C297.86,157.03,279.36,150.25,264.9,137.24z"/>
				<path d="M451.1,101.34c0,17.59,0,32.06,0.91,39.74c0.55,5.31,1.65,9.34,7.14,10.07c2.56,0.37,6.59,0.73,8.24,0.73
					c1.1,0,1.47,0.55,1.47,1.1c0,0.92-0.92,1.47-2.93,1.47c-10.07,0-21.61-0.55-22.53-0.55c-0.91,0-12.46,0.55-17.95,0.55
					c-2.01,0-2.93-0.37-2.93-1.47c0-0.55,0.37-1.1,1.47-1.1c1.65,0,3.84-0.36,5.49-0.73c3.66-0.73,4.58-4.76,5.32-10.07
					c0.91-7.69,0.91-22.16,0.91-39.74V23.88l-27.1,0.37c-11.36,0.18-15.75,1.47-18.68,5.86c-2.01,3.11-2.56,4.4-3.11,5.68
					c-0.55,1.47-1.1,1.84-1.83,1.84c-0.55,0-0.92-0.56-0.92-1.65c0-1.83,3.66-17.58,4.03-19.05c0.36-1.1,1.09-3.48,1.83-3.48
					c1.28,0,3.11,1.84,8.05,2.21c5.31,0.55,12.27,0.92,14.47,0.92h68.67c5.86,0,10.07-0.37,13-0.92c2.75-0.36,4.4-0.91,5.13-0.91
					c0.91,0,0.91,1.1,0.91,2.19c0,5.49-0.55,18.13-0.55,20.14c0,1.66-0.55,2.39-1.28,2.39c-0.92,0-1.28-0.56-1.46-3.12l-0.18-2.01
					c-0.55-5.5-4.95-9.71-22.52-10.08l-23.07-0.37V101.34z"/>
				<path d="M586.32,13.44c41.2,0,71.97,26.02,71.97,68.68c0,41.02-28.94,74.91-73.07,74.91c-50.18,0-71.06-39.01-71.06-71.97
					C514.16,55.39,535.76,13.44,586.32,13.44z M590.16,150.06c16.48,0,50.54-9.52,50.54-62.81c0-43.95-26.74-67.58-55.67-67.58
					c-30.58,0-53.47,20.14-53.47,60.25C531.56,122.59,557.19,150.06,590.16,150.06z"/>
				<path d="M690.04,69.12c0-28.57,0-33.7-0.37-39.56c-0.37-6.22-1.84-9.15-7.88-10.43c-1.47-0.36-4.57-0.55-6.22-0.55
					c-0.74,0-1.47-0.37-1.47-1.1c0-1.1,0.91-1.47,2.93-1.47c8.24,0,19.78,0.55,20.7,0.55c2.02,0,15.93-0.55,21.61-0.55
					c11.53,0,23.8,1.1,33.5,8.06c4.59,3.3,12.64,12.27,12.64,24.91c0,13.55-5.67,27.1-22.16,42.3
					c15.02,19.24,27.47,35.53,38.09,46.88c9.89,10.44,17.76,12.46,22.35,13.18c3.48,0.55,6.04,0.55,7.14,0.55
					c0.92,0,1.65,0.55,1.65,1.1c0,1.1-1.1,1.47-4.39,1.47h-13.01c-10.26,0-14.83-0.92-19.6-3.48c-7.87-4.22-14.29-13.18-24.73-26.92
					c-7.68-10.07-16.29-22.34-19.96-27.11c-0.73-0.73-1.27-1.09-2.38-1.09l-22.53-0.37c-0.91,0-1.28,0.56-1.28,1.46v4.4
					c0,17.59,0,32.06,0.92,39.74c0.55,5.31,1.65,9.34,7.14,10.07c2.57,0.37,6.6,0.73,8.25,0.73c1.09,0,1.47,0.55,1.47,1.1
					c0,0.92-0.93,1.47-2.94,1.47c-10.07,0-21.6-0.55-22.51-0.55c-0.19,0-11.73,0.55-17.22,0.55c-2.01,0-2.93-0.37-2.93-1.47
					c0-0.55,0.37-1.1,1.47-1.1c1.65,0,3.85-0.36,5.49-0.73c3.66-0.73,4.57-4.76,5.31-10.07c0.92-7.69,0.92-22.16,0.92-39.74V69.12z
					 M704.68,85.05c0,0.91,0.37,1.65,1.28,2.2c2.74,1.64,11.17,2.93,19.24,2.93c4.39,0,9.51-0.55,13.73-3.48
					c6.4-4.4,11.17-14.28,11.17-28.2c0-22.89-12.09-36.62-31.68-36.62c-5.49,0-10.44,0.55-12.27,1.1c-0.92,0.37-1.47,1.1-1.47,2.19
					V85.05z"/>
				<path d="M850.42,101.34c0,17.59,0,32.06,0.92,39.74c0.55,5.31,1.65,9.34,7.14,10.07c2.57,0.37,6.6,0.73,8.25,0.73
					c1.09,0,1.47,0.55,1.47,1.1c0,0.92-0.93,1.47-2.94,1.47c-10.08,0-21.61-0.55-22.53-0.55c-0.91,0-12.44,0.55-17.95,0.55
					c-2.01,0-2.93-0.37-2.93-1.47c0-0.55,0.37-1.1,1.46-1.1c1.65,0,3.85-0.36,5.5-0.73c3.66-0.73,4.57-4.76,5.31-10.07
					c0.91-7.69,0.91-22.16,0.91-39.74V69.12c0-28.57,0-33.7-0.36-39.56c-0.36-6.22-2.19-9.34-6.22-10.25
					c-2.02-0.55-4.4-0.73-5.68-0.73c-0.73,0-1.47-0.37-1.47-1.1c0-1.1,0.92-1.47,2.94-1.47c6.04,0,17.58,0.55,18.48,0.55
					c0.92,0,12.46-0.55,17.95-0.55c2.02,0,2.93,0.36,2.93,1.47c0,0.73-0.73,1.1-1.46,1.1c-1.28,0-2.39,0.19-4.59,0.55
					c-4.95,0.92-6.41,4.03-6.77,10.43c-0.37,5.86-0.37,11-0.37,39.56V101.34z"/>
				<path d="M951.78,20.58c2.19-6.04,2.93-7.14,4.03-7.14c1.09,0,1.82,0.93,4.03,6.6c2.74,6.96,31.5,82.59,42.67,110.43
					c6.59,16.3,11.9,19.23,15.75,20.33c2.75,0.92,5.5,1.1,7.32,1.1c1.1,0,1.84,0.19,1.84,1.1c0,1.1-1.65,1.47-3.65,1.47
					c-2.75,0-16.13,0-28.76-0.37c-3.47-0.18-5.49-0.18-5.49-1.28c0-0.73,0.55-1.09,1.28-1.27c1.1-0.37,2.2-2.02,1.1-4.94
					l-17.03-45.06c-0.37-0.73-0.73-1.1-1.64-1.1h-39.38c-0.91,0-1.47,0.56-1.83,1.46l-10.99,32.42c-1.65,4.59-2.57,8.97-2.57,12.27
					c0,3.66,3.85,5.3,6.97,5.3h1.83c1.29,0,1.83,0.38,1.83,1.1c0,1.1-1.1,1.47-2.74,1.47c-4.39,0-12.27-0.55-14.29-0.55
					c-2.02,0-12.08,0.55-20.69,0.55c-2.38,0-3.48-0.37-3.48-1.47c0-0.73,0.73-1.1,1.65-1.1c1.28,0,3.85-0.18,5.31-0.36
					c8.43-1.1,12.08-8.06,15.38-17.22L951.78,20.58z M970.82,93.84c0.92,0,0.92-0.55,0.73-1.28l-17.39-49.44
					c-0.91-2.75-1.83-2.75-2.74,0L935.3,92.56c-0.37,0.92,0,1.28,0.55,1.28H970.82z"/>
				<path d="M1073.33,152.08c-2.56-1.28-2.74-2.02-2.74-6.96c0-9.16,0.73-16.49,0.91-19.41c0.19-2.02,0.55-2.93,1.47-2.93
					c1.1,0,1.28,0.55,1.28,2.01c0,1.65,0,4.22,0.54,6.77c2.75,13.56,14.84,18.68,27.11,18.68c17.58,0,26.19-12.64,26.19-24.36
					c0-12.64-5.31-19.96-21.06-32.97l-8.24-6.77c-19.41-15.93-23.8-27.29-23.8-39.74c0-19.6,14.64-32.97,37.9-32.97
					c7.14,0,12.46,0.74,17.04,1.84c3.48,0.73,4.94,0.91,6.4,0.91c1.47,0,1.84,0.37,1.84,1.28c0,0.92-0.73,6.96-0.73,19.41
					c0,2.93-0.37,4.22-1.28,4.22c-1.1,0-1.29-0.92-1.47-2.38c-0.18-2.2-1.28-7.15-2.38-9.17c-1.1-2.01-6.04-9.7-22.89-9.7
					c-12.64,0-22.52,7.88-22.52,21.25c0,10.43,4.76,17.02,22.34,30.76l5.12,4.03c21.61,17.02,26.74,28.38,26.74,43.03
					c0,7.51-2.93,21.43-15.56,30.4c-7.88,5.49-17.76,7.7-27.66,7.7C1089.27,157.03,1080.84,155.74,1073.33,152.08z"/>
			</g>
			<g>
				<path d="M1020.32,55.41v-4.29c6.79-4.12,11.41-7.95,13.87-11.48c1.79-2.6,2.69-5.65,2.69-9.18c0-2.13-0.4-3.69-1.2-4.69
					c-0.73-1-1.59-1.5-2.6-1.5c-0.66,0-1.59,0.23-2.79,0.7c-1.79,0.6-3.26,0.9-4.39,0.9c-2.66,0-5.02-1-7.09-3
					c-2.05-1.99-3.09-4.49-3.09-7.48c0-3.39,1.04-6.02,3.09-7.88c2.87-2.53,6.19-3.79,9.98-3.79c4.52,0,8.56,1.89,12.08,5.69
					c3.52,3.79,5.28,8.48,5.28,14.06c0,7.85-2.92,15.01-8.77,21.46C1033.46,49.18,1027.77,52.67,1020.32,55.41z"/>
			</g>
		</g>
		<g>
			<path d="M228.34,374.76c-2.86-1.43-3.06-2.25-3.06-7.76c0-10.22,0.82-18.39,1.02-21.66c0.21-2.25,0.62-3.28,1.63-3.28
				c1.23,0,1.43,0.62,1.43,2.25c0,1.84,0,4.7,0.61,7.56c3.06,15.13,16.56,20.85,30.25,20.85c19.62,0,29.23-14.1,29.23-27.19
				c0-14.1-5.93-22.28-23.51-36.79l-9.19-7.56c-21.67-17.79-26.57-30.46-26.57-44.36c0-21.87,16.35-36.79,42.31-36.79
				c7.98,0,13.9,0.82,19.01,2.05c3.89,0.81,5.52,1.02,7.16,1.02c1.64,0,2.05,0.4,2.05,1.44c0,1.01-0.82,7.76-0.82,21.66
				c0,3.28-0.41,4.7-1.43,4.7c-1.23,0-1.43-1.02-1.64-2.66c-0.2-2.45-1.43-7.97-2.65-10.22c-1.23-2.24-6.74-10.83-25.55-10.83
				c-14.1,0-25.14,8.78-25.14,23.7c0,11.66,5.32,19.01,24.94,34.34l5.72,4.5c24.12,19.01,29.84,31.68,29.84,48.04
				c0,8.38-3.27,23.92-17.38,33.93c-8.79,6.13-19.82,8.59-30.86,8.59C246.12,380.28,236.72,378.85,228.34,374.76z"/>
			<path d="M354.73,292.02c0-28.57,0-33.7-0.36-39.55c-0.36-6.24-1.83-9.17-7.88-10.44c-1.46-0.37-4.57-0.55-6.22-0.55
				c-0.73,0-1.46-0.37-1.46-1.11c0-1.09,0.92-1.47,2.93-1.47c4.2,0,9.15,0,13.18,0.19l7.51,0.37c1.28,0,37.72,0,41.94-0.18
				c3.48-0.19,6.41-0.55,7.87-0.92c0.91-0.18,1.65-0.92,2.56-0.92c0.55,0,0.74,0.74,0.74,1.65c0,1.28-0.92,3.48-1.47,8.6
				c-0.19,1.84-0.55,9.89-0.92,12.1c-0.18,0.91-0.55,2.02-1.28,2.02c-1.1,0-1.47-0.93-1.47-2.39c0-1.28-0.18-4.4-1.1-6.59
				c-1.28-2.93-3.11-5.13-13-6.22c-3.11-0.38-23.07-0.55-25.09-0.55c-0.73,0-1.09,0.55-1.09,1.83v50.55c0,1.28,0.18,1.83,1.09,1.83
				c2.38,0,24.91,0,29.12-0.36c4.39-0.37,6.96-0.73,8.6-2.57c1.28-1.46,2.02-2.38,2.75-2.38c0.55,0,0.92,0.37,0.92,1.47
				c0,1.1-0.92,4.2-1.47,10.25c-0.37,3.67-0.74,10.44-0.74,11.72c0,1.47,0,3.48-1.28,3.48c-0.92,0-1.28-0.74-1.28-1.66
				c0-1.82,0-3.66-0.73-6.04c-0.73-2.56-2.38-5.67-9.52-6.41c-4.94-0.55-23.07-0.91-26.19-0.91c-0.92,0-1.28,0.55-1.28,1.28v16.12
				c0,6.22-0.19,27.47,0,31.32c0.55,12.63,3.29,15.01,21.23,15.01c4.77,0,12.82,0,17.58-2.01c4.76-2.02,6.96-5.68,8.24-13.19
				c0.37-2.02,0.74-2.74,1.65-2.74c1.1,0,1.1,1.46,1.1,2.74c0,1.46-1.46,13.92-2.38,17.77c-1.28,4.76-2.75,4.76-9.89,4.76
				c-13.73,0-23.81-0.36-30.95-0.55c-7.14-0.36-11.53-0.56-14.28-0.56c-0.37,0-3.48,0-7.33,0.19c-3.66,0-7.88,0.36-10.62,0.36
				c-2.01,0-2.93-0.36-2.93-1.47c0-0.56,0.37-1.1,1.47-1.1c1.65,0,3.85-0.36,5.5-0.73c3.66-0.74,4.58-4.77,5.31-10.07
				c0.92-7.69,0.92-22.16,0.92-39.74V292.02z"/>
			<path d="M464.42,360.14c-17.76-15.93-22.16-36.81-22.16-54.2c0-12.27,4.21-33.7,20.51-49.99c10.99-11,27.65-19.6,55.85-19.6
				c7.32,0,17.58,0.55,26.55,2.21c6.96,1.28,12.82,2.38,18.68,2.74c2.02,0.19,2.38,0.92,2.38,2.01c0,1.47-0.55,3.66-0.91,10.26
				c-0.37,6.04-0.37,16.11-0.55,18.87c-0.19,2.75-0.55,3.84-1.65,3.84c-1.28,0-1.46-1.28-1.46-3.84c0-7.14-2.93-14.66-7.7-18.68
				c-6.4-5.5-20.51-10.44-36.63-10.44c-24.35,0-35.71,7.15-42.12,13.37c-13.37,12.83-16.48,29.12-16.48,47.81
				c0,34.98,26.92,67.02,66.12,67.02c13.73,0,24.53-1.65,31.86-9.15c3.85-4.03,6.23-12.09,6.78-15.38c0.36-2.01,0.73-2.74,1.84-2.74
				c0.91,0,1.28,1.28,1.28,2.74c0,1.29-2.2,17.21-4.03,23.44c-1.1,3.48-1.47,3.85-4.76,5.31c-7.33,2.93-21.24,4.21-32.96,4.21
				C497.38,379.92,478.89,373.15,464.42,360.14z"/>
			<path d="M598.88,292.02c0-28.57,0-33.7-0.36-39.55c-0.36-6.24-1.82-9.17-7.87-10.44c-1.47-0.37-4.58-0.55-6.23-0.55
				c-0.73,0-1.47-0.37-1.47-1.11c0-1.09,0.91-1.47,2.93-1.47c8.25,0,19.78,0.56,20.7,0.56c2.01,0,15.93-0.56,21.6-0.56
				c11.54,0,23.81,1.11,33.52,8.06c4.57,3.3,12.64,12.27,12.64,24.91c0,13.55-5.67,27.11-22.16,42.3
				c15.02,19.23,27.47,35.53,38.08,46.89c9.89,10.43,17.77,12.46,22.35,13.18c3.48,0.55,6.04,0.55,7.14,0.55
				c0.91,0,1.64,0.55,1.64,1.1c0,1.1-1.1,1.47-4.39,1.47h-13c-10.26,0-14.83-0.91-19.59-3.48c-7.88-4.2-14.29-13.19-24.72-26.92
				c-7.69-10.07-16.3-22.34-19.96-27.1c-0.73-0.73-1.28-1.11-2.38-1.11l-22.53-0.36c-0.91,0-1.28,0.55-1.28,1.47v4.39
				c0,17.58,0,32.04,0.92,39.74c0.55,5.31,1.65,9.34,7.14,10.07c2.56,0.36,6.59,0.73,8.25,0.73c1.09,0,1.47,0.55,1.47,1.1
				c0,0.91-0.92,1.47-2.94,1.47c-10.07,0-21.61-0.56-22.53-0.56c-0.18,0-11.71,0.56-17.21,0.56c-2.01,0-2.93-0.36-2.93-1.47
				c0-0.56,0.37-1.1,1.47-1.1c1.65,0,3.84-0.36,5.5-0.73c3.65-0.74,4.57-4.77,5.3-10.07c0.91-7.69,0.91-22.16,0.91-39.74V292.02z
				 M613.53,307.95c0,0.91,0.38,1.65,1.28,2.19c2.75,1.65,11.18,2.94,19.23,2.94c4.39,0,9.52-0.55,13.73-3.48
				c6.41-4.39,11.17-14.29,11.17-28.21c0-22.88-12.08-36.62-31.68-36.62c-5.49,0-10.44,0.55-12.27,1.1c-0.91,0.36-1.47,1.1-1.47,2.2
				V307.95z"/>
			<path d="M742.98,292.02c0-28.57,0-33.7-0.36-39.55c-0.37-6.24-1.84-9.17-7.88-10.44c-1.46-0.37-4.57-0.55-6.22-0.55
				c-0.73,0-1.47-0.37-1.47-1.11c0-1.09,0.92-1.47,2.93-1.47c4.22,0,9.15,0,13.19,0.19l7.5,0.37c1.28,0,37.73,0,41.94-0.18
				c3.48-0.19,6.41-0.55,7.88-0.92c0.91-0.18,1.65-0.92,2.56-0.92c0.55,0,0.73,0.74,0.73,1.65c0,1.28-0.92,3.48-1.47,8.6
				c-0.18,1.84-0.55,9.89-0.91,12.1c-0.18,0.91-0.55,2.02-1.27,2.02c-1.11,0-1.47-0.93-1.47-2.39c0-1.28-0.19-4.4-1.11-6.59
				c-1.28-2.93-3.11-5.13-13-6.22c-3.11-0.38-23.06-0.55-25.08-0.55c-0.73,0-1.11,0.55-1.11,1.83v50.55c0,1.28,0.19,1.83,1.11,1.83
				c2.38,0,24.91,0,29.11-0.36c4.4-0.37,6.96-0.73,8.62-2.57c1.27-1.46,2.01-2.38,2.74-2.38c0.55,0,0.92,0.37,0.92,1.47
				c0,1.1-0.92,4.2-1.47,10.25c-0.37,3.67-0.73,10.44-0.73,11.72c0,1.47,0,3.48-1.28,3.48c-0.92,0-1.28-0.74-1.28-1.66
				c0-1.82,0-3.66-0.73-6.04c-0.74-2.56-2.38-5.67-9.52-6.41c-4.94-0.55-23.08-0.91-26.18-0.91c-0.92,0-1.29,0.55-1.29,1.28v16.12
				c0,6.22-0.18,27.47,0,31.32c0.55,12.63,3.3,15.01,21.25,15.01c4.76,0,12.81,0,17.58-2.01c4.75-2.02,6.96-5.68,8.24-13.19
				c0.36-2.02,0.73-2.74,1.65-2.74c1.1,0,1.1,1.46,1.1,2.74c0,1.46-1.47,13.92-2.39,17.77c-1.28,4.76-2.74,4.76-9.89,4.76
				c-13.73,0-23.8-0.36-30.94-0.55c-7.15-0.36-11.54-0.56-14.29-0.56c-0.36,0-3.48,0-7.32,0.19c-3.66,0-7.87,0.36-10.61,0.36
				c-2.02,0-2.93-0.36-2.93-1.47c0-0.56,0.36-1.1,1.47-1.1c1.65,0,3.84-0.36,5.49-0.73c3.66-0.74,4.57-4.77,5.31-10.07
				c0.92-7.69,0.92-22.16,0.92-39.74V292.02z"/>
			<path d="M898.1,324.25c0,17.58,0,32.04,0.92,39.74c0.55,5.31,1.65,9.34,7.14,10.07c2.56,0.36,6.59,0.73,8.24,0.73
				c1.1,0,1.46,0.55,1.46,1.1c0,0.91-0.91,1.47-2.93,1.47c-10.08,0-21.6-0.56-22.53-0.56s-12.45,0.56-17.95,0.56
				c-2.01,0-2.93-0.36-2.93-1.47c0-0.56,0.37-1.1,1.47-1.1c1.65,0,3.85-0.36,5.49-0.73c3.66-0.74,4.58-4.77,5.31-10.07
				c0.91-7.69,0.91-22.16,0.91-39.74v-77.47l-27.11,0.38c-11.36,0.18-15.75,1.47-18.68,5.86c-2.02,3.11-2.56,4.4-3.11,5.67
				c-0.55,1.47-1.1,1.84-1.84,1.84c-0.55,0-0.92-0.55-0.92-1.65c0-1.84,3.67-17.58,4.05-19.04c0.35-1.1,1.09-3.49,1.82-3.49
				c1.28,0,3.12,1.84,8.06,2.21c5.31,0.55,12.27,0.91,14.47,0.91h68.67c5.86,0,10.07-0.37,13-0.91c2.74-0.37,4.39-0.92,5.13-0.92
				c0.91,0,0.91,1.1,0.91,2.2c0,5.49-0.55,18.13-0.55,20.14c0,1.64-0.55,2.38-1.28,2.38c-0.91,0-1.28-0.54-1.47-3.11l-0.18-2.02
				c-0.55-5.49-4.94-9.7-22.53-10.06l-23.07-0.38V324.25z"/>
		</g>
	</g>
</g>
</svg>
