<?xml version="1.0" encoding="utf-8"?>
<!-- Generator: Adobe Illustrator 26.0.2, SVG Export Plug-In . SVG Version: 6.00 Build 0)  -->
<svg version="1.1" xmlns="http://www.w3.org/2000/svg" xmlns:xlink="http://www.w3.org/1999/xlink" x="0px" y="0px"
	 viewBox="0 0 1197.7 360.12" style="enable-background:new 0 0 1197.7 360.12;" xml:space="preserve">
<g id="Layer_1">
</g>
<g id="Layer_3">
</g>
<g id="Layer_2">
	<g>
		<path d="M253.7,36.09c5.5-13.46,13.49-24.74,27.4-30.26c13.72-5.44,27.72-5.67,41.46-0.1c13.89,5.63,21.26,17.56,27.59,30.96
			c1.2-2.47,1.97-4.16,2.83-5.8c9.7-18.45,25.16-27.81,45.82-28.92c7.07-0.38,14.01,0.49,20.7,2.85
			c19.29,6.8,30.77,20.2,33.07,40.61c1.04,9.24,1,18.63,1.02,27.96c0.07,41.41-0.01,82.83-0.04,124.24c0,1.4,0.06,2.81-0.03,4.2
			c-0.25,3.99-2.36,6.32-6.25,6.94c-0.76,0.12-1.55,0.13-2.33,0.13c-11.22,0.01-22.44,0.06-33.66-0.02
			c-5.96-0.04-8.28-2.31-8.28-8.2C403,165.34,403.1,130,403.07,94.66c-0.01-8.24-0.3-16.49-0.66-24.73
			c-0.11-2.45-0.68-4.94-1.43-7.3c-2.2-6.97-6.95-11.19-14.16-12.75c-13.25-2.87-25.82,4.14-29.66,17.16
			c-1.48,5.02-2.17,10.36-2.52,15.6c-0.45,6.98-0.26,14-0.27,21.01c-0.02,31.29-0.01,62.59-0.01,93.88c0,1.25,0.04,2.49-0.02,3.74
			c-0.27,4.91-2.66,7.29-7.63,7.62c-0.47,0.03-0.93,0.02-1.4,0.02c-10.91,0-21.82,0.04-32.72-0.01c-6.79-0.03-8.94-2.19-8.95-9.03
			c-0.03-35.5,0.06-70.99-0.07-106.49c-0.03-8.07-0.68-16.13-1.21-24.19c-0.13-1.98-0.83-3.95-1.47-5.86
			c-2.97-8.94-9.14-13.93-18.62-14.39c-9.23-0.45-16.85,2.56-21.58,11.02c-3.58,6.41-4.69,13.48-5.23,20.65
			c-0.35,4.65-0.42,9.33-0.43,14c-0.03,34.1-0.02,68.19-0.02,102.29c0,1.4,0.05,2.81-0.02,4.2c-0.28,5.29-2.57,7.71-7.89,7.77
			c-11.69,0.12-23.37,0.13-35.06,0c-5.3-0.06-7.61-2.6-7.75-7.84c-0.03-1.24-0.01-2.49-0.01-3.74c0-59.94,0-119.88,0-179.83
			c0-1.25-0.03-2.49,0.01-3.74c0.18-5.11,2.68-7.81,7.82-7.87c10.91-0.13,21.82-0.13,32.72,0c5.15,0.06,7.62,2.73,7.67,7.92
			c0.06,7.3,0.02,14.59,0.02,21.89C252.92,35.79,253.31,35.94,253.7,36.09z"/>
		<path d="M602.61,184.75c-2.24,2.1-4.14,3.89-6.05,5.67c-8.89,8.24-18.57,15.2-30.53,18.27c-13.01,3.34-26.24,4.08-39.34,1.19
			c-19.02-4.19-31.88-15.69-37.53-34.51c-4.41-14.69-4.31-29.53,0.46-44.12c5.3-16.2,16.18-27.77,31.18-35.59
			c11.04-5.75,23-8.63,35.2-10.41c11.08-1.61,22.25-2.65,33.37-3.98c1.82-0.22,3.62-0.58,6.07-0.97c-0.3-7.36,0.05-14.56-1.02-21.56
			c-1.73-11.41-8.83-17.84-20.26-19.34c-6.76-0.89-13.36,0.03-19.57,3.06c-7.11,3.47-11.75,9.05-14,16.62
			c-0.4,1.34-0.63,2.74-1.12,4.04c-1.46,3.84-3.79,5.3-7.96,4.86c-10.84-1.15-21.67-2.34-32.49-3.59c-5.4-0.62-7.59-3.71-6.46-9.07
			c4.46-21.22,16.42-36.63,36.07-45.9c15.38-7.27,31.77-9.63,48.62-9.32c13.21,0.24,26,2.59,38.08,8.1
			c18.81,8.57,29.11,23.24,30.95,43.77c0.51,5.72,0.77,11.49,0.79,17.24c0.09,22.88,0.22,45.76-0.04,68.63
			c-0.13,11.72,3.12,22.05,10.32,31.22c1.54,1.96,3.06,3.95,4.32,6.08c2.29,3.88,1.84,6.55-1.52,9.48
			c-8.81,7.67-17.62,15.33-26.5,22.91c-4.43,3.78-7.53,3.66-12-0.12c-5.62-4.76-10.56-10.11-14.6-16.28
			C605.72,189.09,604.26,187.12,602.61,184.75z M595.21,110.25c-3.23,0-5.85-0.14-8.45,0.02c-9.83,0.62-19.52,1.92-28.52,6.32
			c-9.25,4.52-15.22,11.7-17.38,21.82c-1.21,5.69-1.26,11.44-0.11,17.16c2.77,13.7,13.68,21.05,27.22,18.24
			c5.16-1.07,9.57-3.65,13.37-7.27c6.03-5.76,9.69-12.88,11.82-20.85C596.21,134.22,594.94,122.52,595.21,110.25z"/>
		<path d="M116.76,184.73c-2.5,2.33-4.59,4.18-6.58,6.14c-15.75,15.48-34.89,21.73-56.63,20.45c-5.71-0.34-11.54-1-17-2.61
			c-16.77-4.92-27.9-16.04-33.11-32.66c-4.59-14.64-4.6-29.51,0.08-44.13c5.86-18.32,18.43-30.68,35.82-38.35
			c11.94-5.27,24.64-7.65,37.47-9.32c9.1-1.19,18.26-2.01,27.38-3.03c1.67-0.19,3.31-0.56,5.14-0.88
			c0.35-7.94,0.65-15.57-0.97-23.06c-2.23-10.33-9.23-16.49-20.18-17.88c-6.61-0.84-13.08,0.03-19.15,2.9
			c-7.48,3.53-12.24,9.41-14.52,17.33c-0.43,1.49-0.69,3.07-1.36,4.44c-1.32,2.72-3.44,4.37-6.7,4.01
			C35,66.82,23.53,65.68,12.1,64.26c-4.35-0.54-6.36-3.69-5.52-8.09c3.63-19.11,13.6-33.86,30.47-43.76
			c9.93-5.83,20.76-9.11,32.09-10.84c17.48-2.66,34.8-2.16,51.71,3.36c4.85,1.58,9.62,3.67,14.06,6.18
			c14.72,8.29,22.98,21.11,25.06,37.78c0.75,6,1.08,12.09,1.11,18.15c0.12,23.66,0.15,47.32,0.01,70.98
			c-0.07,11.31,2.91,21.48,9.9,30.44c1.63,2.09,3.26,4.19,4.65,6.43c2.39,3.88,1.87,6.92-1.55,9.9c-8.58,7.46-17.17,14.9-25.8,22.31
			c-5.06,4.35-7.95,4.27-13.09-0.13c-5.36-4.59-10.04-9.76-13.94-15.64C119.9,189.26,118.48,187.24,116.76,184.73z M108.81,110.17
			c-12.42-0.09-24.72,0.84-36.2,6.34c-17.06,8.17-24,30.4-14.82,47.01c3.38,6.12,8.54,9.71,15.53,10.59
			c9.79,1.23,17.66-2.52,24.09-9.59c5.56-6.13,8.88-13.45,10.47-21.52c2.03-10.29,1.71-20.71,1.55-31.12
			C109.42,111.44,109.13,111.02,108.81,110.17z"/>
		<path d="M1094.48,39.24c0.65-1.36,1.21-2.77,1.95-4.08c2.85-4.99,5.4-10.2,8.73-14.85c8.22-11.5,19.84-17.17,33.77-18.21
			c6.53-0.49,13.08-0.32,19.5,1.28c17.65,4.39,29.39,15.26,34.55,32.63c2.02,6.8,3.05,13.99,3.74,21.07
			c0.78,8.04,0.91,16.16,0.93,24.24c0.09,39.07,0.04,78.13,0.04,117.2c0,0.62,0.01,1.25,0,1.87c-0.12,6.06-2.42,8.35-8.6,8.51
			c-1.4,0.04-2.8,0.01-4.21,0.01c-9.5,0-19,0.02-28.51-0.01c-7.46-0.02-9.5-2.04-9.5-9.38c-0.01-37.2,0-74.4,0-111.59
			c0-7.16-0.12-14.32-1.95-21.32c-0.36-1.35-0.72-2.71-1.18-4.03c-5.7-16.35-23.31-16.79-32.54-10.03c-4.53,3.32-7.65,7.64-9.8,12.8
			c-3.85,9.22-5.13,18.92-5.18,28.76c-0.17,33.46-0.11,66.92-0.14,100.39c0,2.18,0.04,4.36-0.01,6.54
			c-0.11,5.28-2.39,7.66-7.72,7.85c-4.05,0.14-8.1,0.04-12.15,0.04c-7.17,0-14.33,0.03-21.5-0.01c-6.91-0.04-9.04-2.13-9.04-8.85
			c-0.04-61.79-0.06-123.58-0.08-185.36c0-6.58,2.31-8.85,9.06-8.88c9.97-0.04,19.94-0.01,29.91-0.01c0.78,0,1.56-0.01,2.33,0.05
			c3.28,0.25,6.67,2.9,6.53,7.11c-0.23,7.15-0.06,14.32-0.06,21.48c0,1.52,0,3.04,0,4.56C1093.74,39.07,1094.11,39.16,1094.48,39.24
			z"/>
		<path d="M849.58,108.49c0.33-21.83,3.25-41.41,11.88-59.81c7.68-16.37,18.76-29.69,35-38.23C925.2-4.68,973.2-2.69,998.76,36.99
			c8.48,13.16,13.65,27.57,16.32,42.89c3.86,22.2,3.71,44.31-2.34,66.16c-5.05,18.2-13.64,34.42-27.86,47.2
			c-17.08,15.35-37.34,21.39-59.99,19.23c-29.31-2.8-49.37-18.88-62.3-44.6c-7.3-14.51-10.85-30.09-12.25-46.18
			C849.89,116.72,849.75,111.74,849.58,108.49z M963.67,108.2c-0.73-10.4-1.24-20.81-2.27-31.18c-0.75-7.59-2.31-15.08-5.36-22.15
			c-2.79-6.46-7.27-11.13-14.19-13.22c-12.53-3.79-23.89,0.85-30.07,12.36c-3.82,7.12-5.64,14.87-6.4,22.78
			c-1.98,20.67-2,41.35,0.84,61.96c1.11,8.04,3.1,15.89,7.25,23.01c3.16,5.42,7.38,9.6,13.65,11.31c9.26,2.53,19-0.74,25-8.49
			c3.89-5.02,6.07-10.82,7.58-16.92C962.9,134.7,963.16,121.47,963.67,108.2z"/>
		<path d="M484.69,359.24c-8.41,0-16.84,0.34-25.23-0.09c-9.14-0.47-18.29-1.35-27.37-2.59c-14.31-1.95-28.64-3.91-42.81-6.66
			c-31.12-6.02-61.16-15.69-90.26-28.22c-35.36-15.22-68.35-34.52-98.79-58.09c-8.98-6.96-17.54-14.46-26.25-21.75
			c-1.18-0.99-2.3-2.12-3.22-3.36c-1.31-1.77-1.42-3.8-0.25-5.69c1.04-1.69,2.86-1.98,4.56-1.58c1.78,0.41,3.54,1.14,5.13,2.04
			c28.44,16.26,58.01,30.13,88.7,41.6c34.47,12.88,69.74,22.91,105.98,29.36c15.29,2.72,30.66,5.04,46.04,7.16
			c8.14,1.12,16.42,1.3,24.6,2.15c20.49,2.13,41.04,2.03,61.58,1.73c10.09-0.15,20.19-0.95,30.26-1.73
			c10.69-0.82,21.41-1.51,32.01-3.07c16.75-2.46,33.5-5.12,50.07-8.55c38.65-8,76.21-19.65,112.58-35.03
			c2.76-1.17,5.57-1.89,8.62-1.16c6.1,1.48,8.49,7.73,4.62,12.69c-1.41,1.8-3.3,3.3-5.18,4.66c-21.55,15.58-44.82,28.12-69.21,38.6
			c-32.01,13.75-65.26,23.54-99.48,29.85c-14.19,2.62-28.55,4.44-42.92,5.85c-14.53,1.42-29.16,1.88-43.75,2.76
			C484.72,359.83,484.7,359.54,484.69,359.24z"/>
		<path d="M756.04,142.4c6.43,0.25,11.85,0.32,17.25,0.69c17.09,1.19,33.44,5.07,48.9,12.73c6.71,3.32,9.78,8.02,9.44,15.51
			c-0.35,7.61-0.07,15.25-0.08,22.88c0,1.09,0.04,2.19-0.07,3.27c-0.56,5.15-4.6,7.37-9.41,5.32c-6.15-2.62-12.18-5.61-18.51-7.67
			c-36.6-11.93-72.35-9.82-107.09,7.04c-0.56,0.27-1.1,0.58-1.67,0.83c-4.77,2.05-9.04-0.39-9.11-5.64
			c-0.17-11.2-0.15-22.41,0.12-33.61c0.13-5.57,2.56-10.45,5.76-15.03c22.67-32.39,45.27-64.82,67.89-97.25
			c1.03-1.48,1.99-3,3.45-5.21c-2.5-0.12-4.14-0.26-5.78-0.26c-18.07-0.02-36.14-0.01-54.21-0.01c-1.25,0-2.5,0.04-3.74-0.05
			c-4.07-0.29-6.6-2.38-6.69-6.33c-0.2-9.18-0.19-18.37-0.02-27.55c0.08-4.03,2.51-6.2,6.51-6.51c1.24-0.1,2.49-0.06,3.74-0.06
			c38.32,0,76.64,0,114.96,0c0.62,0,1.25-0.01,1.87,0c6.42,0.11,8.25,1.95,8.28,8.45c0.03,6.54-0.1,13.08,0.05,19.61
			c0.08,3.41-0.76,6.46-2.55,9.28c-1.67,2.62-3.36,5.24-5.15,7.79c-20.36,29.07-40.74,58.12-61.11,87.18
			C758.17,139.04,757.38,140.35,756.04,142.4z"/>
		<path d="M739.66,240.85c-12.52,1.12-25.04,2.25-37.56,3.38c-3.86,0.35-7.72,0.88-11.59,0.97c-1.34,0.03-3.18-0.68-3.94-1.69
			c-1.21-1.59-0.01-3.34,1.27-4.51c1.6-1.46,3.34-2.8,5.17-3.95c11.48-7.2,24.08-11.52,37.33-14.05
			c11.79-2.25,23.72-3.43,35.71-2.74c9.45,0.55,18.91,1.44,27.97,4.58c7.08,2.45,8.72,4.77,9.03,12.31
			c0.61,15.16-2.76,29.65-7.57,43.85c-5.13,15.14-12.28,29.25-22.67,41.52c-3.11,3.67-6.62,7-10.1,10.34
			c-1.2,1.15-2.77,2.06-4.33,2.68c-2.62,1.05-4.36-0.25-4.07-3.09c0.18-1.81,0.95-3.58,1.56-5.33
			c5.21-14.97,10.75-29.83,15.52-44.93c2.04-6.44,2.62-13.37,3.61-20.11c0.33-2.25,0.07-4.67-0.33-6.94
			c-0.77-4.4-3.62-7.4-7.78-8.48c-5.38-1.39-10.92-2.32-16.44-3.01c-3.53-0.44-7.15-0.08-10.73-0.08
			C739.7,241.33,739.68,241.09,739.66,240.85z"/>
	</g>
</g>
</svg>
