<svg xmlns="http://www.w3.org/2000/svg" width="100" height="75" viewBox="0 0 100 75" fill="none">
<path fill-rule="evenodd" clip-rule="evenodd" d="M37.5085 25.5003C37.5085 19.361 40.8112 13.9757 45.8164 11.0573C37.5968 10.6573 30.6626 17.2453 30.6626 25.5003C30.6626 33.7629 37.6044 40.343 45.8164 39.9433C40.908 37.0814 37.5085 31.7482 37.5085 25.5003ZM54.2032 11.041C46.2269 11.041 39.7439 17.5316 39.7439 25.5004C39.7439 33.4703 46.2281 39.9598 54.2032 39.9598C62.1758 39.9598 68.6626 33.4729 68.6626 25.5004C68.6626 17.5278 62.1758 11.041 54.2032 11.041ZM55.3209 33.0207V34.6666C55.3209 35.2835 54.8202 35.7842 54.2032 35.7842C53.5863 35.7842 53.0856 35.2835 53.0856 34.6666V33.0207C53.0031 33.0207 52.9176 33.0217 52.8291 33.0227C51.9394 33.0331 50.7492 33.0469 49.3668 32.0878C48.8601 31.7361 48.7342 31.0394 49.0859 30.532C49.4376 30.0254 50.1343 29.8995 50.6409 30.2511C51.0994 30.572 51.6576 30.7796 52.2347 30.7854H55.9863C57.1342 30.7854 58.0688 29.8564 58.0688 28.7013C58.0688 27.5524 57.1344 26.618 55.9855 26.618H52.421C50.0396 26.618 48.1024 24.6808 48.1024 22.2994C48.1024 20.1603 49.5521 17.9801 53.0856 17.9801V16.3342C53.0856 15.7173 53.5863 15.2165 54.2032 15.2165C54.8202 15.2165 55.3209 15.7173 55.3209 16.3342V17.9801C55.3751 17.9801 55.4305 17.9797 55.4874 17.9793C56.0551 17.9754 56.7576 17.9705 57.6806 18.3393V18.34C58.4442 18.6451 59.1458 19.1601 59.5538 19.6268V19.6275C59.9593 20.0782 59.933 20.7704 59.4867 21.1893C59.0449 21.6053 58.3373 21.5954 57.9071 21.1386C57.3639 20.5582 56.6181 20.2221 55.8603 20.2154H52.4202C51.2854 20.2154 50.3377 21.1321 50.3377 22.2994C50.3377 23.4484 51.272 24.3827 52.421 24.3827H55.9855C58.3698 24.3827 60.3041 26.323 60.3041 28.7013C60.3041 30.9907 58.7026 33.0207 55.3209 33.0207ZM63.1282 49.869L77.3709 45.6458C79.5268 45.1671 81.6819 45.7733 83.2508 47.1128C84.1467 47.8778 83.7446 49.2211 82.6818 49.7295L57.5452 61.7534C57.2758 61.8823 56.9809 61.9492 56.6822 61.9492H36.7451C35.9364 61.9492 35.2073 62.4362 34.8976 63.1832L33.548 66.4381C33.2382 67.1851 32.5092 67.6721 31.7005 67.6721H18.4441C17.0318 67.6721 16.0644 66.248 16.5848 64.9351L21.0614 53.6412C22.4994 50.0165 25.9482 47.6727 29.8492 47.6727C31.1525 47.6735 33.1272 47.673 35.1346 47.6725C37.3694 47.672 39.6448 47.6714 41.0797 47.6727C41.7817 47.4184 44.8429 46.3088 45.6001 46.034C48.4679 44.9946 51.5581 45.6019 53.8095 47.3774C54.8118 48.1679 54.3963 49.642 53.2186 50.1345L46.1124 53.1062C45.2787 53.4549 44.9224 54.4428 45.3417 55.2433C45.7138 55.9536 46.5682 56.26 47.3068 55.948L52.4641 53.7698C52.4754 53.765 52.4861 53.7606 52.4968 53.7563C52.5087 53.7515 52.5205 53.7469 52.5332 53.7421C52.9181 53.5969 56.556 52.224 58.9364 51.3118C60.0446 50.8872 61.9904 50.2063 63.1282 49.869Z" fill="#005891"/>
</svg>