<svg xmlns="http://www.w3.org/2000/svg" width="100" height="75" viewBox="0 0 100 75" fill="none">
<path fill-rule="evenodd" clip-rule="evenodd" d="M50.3881 20.1752C50.3351 20.1213 49.2125 19.1581 47.8931 18.0348C45.5919 16.0756 45.4643 15.9926 44.7653 16.0004C43.3336 16.0166 42.4 16.5238 41.6108 17.7141C40.8067 18.9272 40.5617 20.0126 40.3978 23.0861C40.2471 25.9136 40.0347 26.9061 39.3363 28.0447C38.7812 28.9496 37.7698 29.7865 36.7294 30.2017C34.0651 31.265 28.1435 29.9978 26.6231 28.0391C26.3413 27.6762 25.6443 26.3203 25.074 25.026C23.8451 22.2375 23.1816 21.4336 22.1089 21.4336C21.7548 21.4336 21.2865 21.503 21.0678 21.5878C20.4626 21.8226 19.5852 22.6741 18.9634 23.6305L18.4041 24.4908L18.2842 30.8618L18.1645 37.2329L19.4399 37.827C25.2762 40.5451 38.4232 42.5159 58.4502 43.675C66.7807 44.157 74.7657 43.8633 79.5039 42.9006C82.5295 42.2858 85.5009 41.1335 86.6706 40.1214C87.1748 39.6851 87.0154 39.4025 85.838 38.6437C82.9765 36.7998 80.2824 35.7503 74.4834 34.2208C72.2566 33.6335 69.8328 32.9416 69.0974 32.6833L67.7602 32.2137L66.7052 33.5149C65.437 35.079 64.9958 35.3974 64.097 35.3974C63.2307 35.3974 62.5675 34.9138 62.2949 34.0832C62.0136 33.2257 62.2512 32.4272 63.1426 31.2342C63.7991 30.3556 63.8364 30.2561 63.5842 30.056C62.8543 29.4764 62.8216 29.4893 61.7918 30.7699C60.5951 32.2575 60.1815 32.5523 59.2619 32.5726C58.372 32.5921 57.7159 32.1254 57.4364 31.2739C57.1481 30.3949 57.3993 29.5986 58.3749 28.3C58.8172 27.7112 59.179 27.1684 59.179 27.0938C59.179 26.8714 58.188 26.3429 58.0597 26.4969C57.9946 26.5751 57.5713 27.1224 57.1186 27.7132C56.0308 29.1334 55.6564 29.4657 54.913 29.6713C53.6103 30.0312 52.4842 29.1833 52.4858 27.8434C52.4868 26.9742 52.7351 26.4723 53.8985 24.9865C54.3969 24.3503 54.8037 23.7926 54.8026 23.7471C54.8016 23.7017 54.5718 23.5012 54.2919 23.3018L53.7831 22.9389L52.5004 24.5927C51.0234 26.4973 50.5045 26.8854 49.4339 26.8863C48.8118 26.8868 48.5922 26.8003 48.2009 26.4011C47.6372 25.8258 47.4741 25.1643 47.6948 24.3486C47.849 23.779 48.1476 23.3262 49.7555 21.2252C50.1563 20.7017 50.4409 20.2292 50.3881 20.1752ZM49.9714 25.1305C50.3975 24.7377 52.5992 21.927 52.5184 21.8791C52.4852 21.8593 52.3011 21.7089 52.1093 21.5446C51.7637 21.2488 51.7522 21.2566 50.8864 22.3726C49.4011 24.2873 49.138 24.6777 49.138 24.966C49.138 25.3884 49.594 25.4783 49.9714 25.1305ZM54.7017 28.0989C54.9247 27.9703 56.9117 25.49 56.9117 25.3403C56.9117 25.303 56.7304 25.1513 56.5091 25.0032C56.1069 24.7343 56.105 24.7358 55.0515 26.0952C54.4712 26.844 53.9965 27.5909 53.9965 27.7553C53.9965 28.111 54.3672 28.2916 54.7017 28.0989ZM37.5991 27.7405C37.9759 27.3303 38.6111 26.0598 38.6111 25.7164C38.6111 25.5039 38.3918 25.5499 36.8439 26.0858C34.1105 27.0324 31.761 27.0775 28.5657 26.2449C27.9001 26.0714 27.3318 25.9521 27.303 25.9797C27.1844 26.0934 27.783 27.0464 28.1663 27.3541C28.7667 27.836 31.0468 28.6358 32.5021 28.8751C34.7594 29.2461 36.5903 28.8386 37.5991 27.7405ZM61.4408 28.6221L61.0792 28.3365C60.8803 28.1795 60.6772 28.0493 60.6278 28.0473C60.4443 28.0399 58.8551 30.3131 58.8551 30.583C58.8551 30.9252 59.2331 31.0962 59.5674 30.9054C59.7027 30.828 60.1797 30.2827 60.6272 29.6934L61.4408 28.6221ZM66.1429 31.5517C66.1429 31.4692 65.9573 31.3155 65.7304 31.2101C65.5035 31.1045 65.3032 31.0217 65.2851 31.0259C65.1199 31.0637 63.7136 33.1845 63.7136 33.3957C63.7136 33.7319 64.0933 33.906 64.4144 33.7175C64.7134 33.5418 66.1429 31.7506 66.1429 31.5517ZM20.6678 40.1045L20.0438 39.8462C19.7006 39.7041 18.9663 39.3749 18.4123 39.1148L17.4046 38.6417L16.6657 39.581C16.2593 40.0976 15.6238 41.1378 15.2538 41.8925C13.9065 44.6392 14.3621 46.6897 16.6466 48.1612C17.3246 48.5978 17.5498 48.5007 17.5549 47.7686C17.5632 46.5822 19.2056 42.3445 20.3164 40.6429L20.6678 40.1045ZM26.3028 41.8041C26.3028 41.7202 25.4967 41.4488 24.5117 41.201C23.5266 40.9531 22.6308 40.7151 22.521 40.6721C22.1738 40.5361 20.9912 42.4114 20.1402 44.4477C19.5957 45.7504 19.0178 47.9866 19.0161 48.7981L19.0149 49.3091L20.594 49.6568C21.4624 49.8481 22.4354 50.0471 22.7562 50.099L23.3392 50.1934L23.5258 49.0412C23.8787 46.8602 25.0068 43.8291 25.9993 42.3952C26.1661 42.154 26.3028 41.8879 26.3028 41.8041ZM83.5527 46.0863C85.8118 44.9643 87.1711 43.5837 87.458 42.1201C87.5798 41.4984 87.4669 41.4816 86.7108 42.0087C85.8588 42.603 83.1211 43.6591 81.2044 44.133C77.4608 45.0589 72.2981 45.5583 66.4565 45.5597C62.1992 45.5608 51.7605 44.9324 44.3709 44.2302C42.506 44.0529 40.8145 43.908 40.6115 43.908C39.8989 43.908 38.1678 47.0241 37.4862 49.5343C37.3032 50.2081 37.1535 50.8284 37.1535 50.9129C37.1535 51.0948 49.3179 50.931 53.9156 50.6873C62.7685 50.218 70.097 49.5406 74.6454 48.7712C77.3811 48.3085 81.6989 47.0069 83.5527 46.0863ZM32.3384 42.7512C32.2556 42.7512 31.3921 42.6036 30.4194 42.4232C29.4469 42.2429 28.527 42.0942 28.3754 42.0927C28.0465 42.0897 27.3699 43.0591 26.5763 44.6699C25.8503 46.1437 25.4219 47.4369 25.1233 49.0561L24.8901 50.3206L25.3194 50.4083C25.5557 50.4564 26.5578 50.5481 27.5466 50.6119C28.6709 50.6846 29.1131 50.7425 29.3263 50.5487C29.4923 50.3978 29.5195 50.0944 29.622 49.5266C29.9268 47.8372 31.1318 44.8544 32.1423 43.2883C32.3329 42.9928 32.421 42.7512 32.3384 42.7512ZM38.2373 43.9714C38.4538 43.6284 38.4299 43.6183 36.9555 43.4274C36.1292 43.3207 35.1861 43.1906 34.8601 43.1385C34.3058 43.0503 34.2335 43.0911 33.7514 43.7652C32.6573 45.2953 31.3848 48.3374 31.0896 50.1287L30.9767 50.8135L33.1815 50.934C34.394 51.0003 35.42 51.0199 35.4615 50.9778C35.5028 50.9355 35.6887 50.2875 35.8744 49.5378C36.3694 47.5407 37.1581 45.6828 38.2373 43.9714ZM16 62C15.1716 62 14.5 62.6716 14.5 63.5C14.5 64.3284 15.1716 65 16 65H84C84.8284 65 85.5 64.3284 85.5 63.5C85.5 62.6716 84.8284 62 84 62H16Z" fill="#005891"/>
</svg>