<svg xmlns="http://www.w3.org/2000/svg" width="100" height="75" viewBox="0 0 100 75" fill="none">
<path fill-rule="evenodd" clip-rule="evenodd" d="M58.6552 28.8448C53.4335 23.623 50.5 16.5409 50.5 9.15625L78.3438 37C70.9591 37 63.877 34.0665 58.6552 28.8448ZM78.2612 39.062C77.8674 44.3793 75.9553 49.4717 72.7521 53.7341C69.5488 57.9964 65.1891 61.2494 60.1911 63.1064C55.1931 64.9634 49.767 65.3464 44.5577 64.2097C39.3485 63.0731 34.5751 60.4647 30.8049 56.6945C27.0347 52.9244 24.4263 48.151 23.2897 42.9417C22.1531 37.7324 22.536 32.3063 24.393 27.3084C26.2501 22.3104 29.503 17.9507 33.7654 14.7474C38.0277 11.5441 43.1201 9.63199 48.4374 9.23828C48.4385 10.9674 48.5938 12.693 48.9015 14.3945C44.5597 14.6998 40.3974 16.2475 36.911 18.853C33.4246 21.4585 30.7612 25.0119 29.2386 29.0893C27.716 33.1668 27.3983 37.5961 28.3236 41.8491C29.2488 46.1021 31.3779 49.9991 34.4569 53.0755C37.5358 56.1518 41.4347 58.2776 45.6885 59.1992C49.9422 60.1208 54.3713 59.7994 58.4475 58.2733C62.5236 56.7472 66.0747 54.0808 68.6773 50.5922C71.2799 47.1036 72.824 42.94 73.1255 38.598C74.8203 38.9044 76.5389 39.0597 78.2612 39.062ZM58.7501 31.7097L43.9413 46.4772C43.5543 46.8642 43.0294 47.0816 42.4821 47.0816C41.9348 47.0816 41.4099 46.8642 41.0229 46.4772C40.6359 46.0902 40.4184 45.5653 40.4184 45.018C40.4184 44.4707 40.6359 43.9458 41.0229 43.5588L55.7904 28.75C52.6869 25.1943 50.4709 20.9532 49.3244 16.375C45.3552 16.6085 41.5381 17.9843 38.3326 20.3368C35.1272 22.6893 32.67 25.9182 31.257 29.6347C29.844 33.3512 29.5353 37.397 30.3682 41.2849C31.2011 45.1727 33.1401 48.737 35.9516 51.5485C38.7631 54.36 42.3273 56.2989 46.2152 57.1318C50.1031 57.9647 54.1488 57.6561 57.8653 56.2431C61.5819 54.83 64.8107 52.3729 67.1632 49.1674C69.5157 45.962 70.8916 42.1448 71.1251 38.1756C66.5468 37.0291 62.3058 34.8132 58.7501 31.7097ZM39.1563 28.75C39.1563 28.1381 39.3377 27.54 39.6777 27.0312C40.0176 26.5224 40.5008 26.1259 41.0661 25.8917C41.6314 25.6576 42.2535 25.5963 42.8536 25.7157C43.4537 25.8351 44.005 26.1297 44.4377 26.5624C44.8703 26.9951 45.165 27.5463 45.2844 28.1464C45.4037 28.7466 45.3425 29.3686 45.1083 29.9339C44.8741 30.4992 44.4776 30.9824 43.9688 31.3224C43.4601 31.6623 42.8619 31.8438 42.2501 31.8438C41.4295 31.8438 40.6426 31.5178 40.0624 30.9376C39.4823 30.3574 39.1563 29.5705 39.1563 28.75ZM58.7501 48.3438C58.1382 48.3438 57.54 48.1623 57.0313 47.8224C56.5225 47.4824 56.126 46.9992 55.8918 46.4339C55.6576 45.8686 55.5964 45.2466 55.7158 44.6464C55.8351 44.0463 56.1298 43.4951 56.5624 43.0624C56.9951 42.6297 57.5464 42.3351 58.1465 42.2157C58.7466 42.0963 59.3687 42.1576 59.934 42.3918C60.4993 42.6259 60.9825 43.0224 61.3224 43.5312C61.6624 44.04 61.8438 44.6381 61.8438 45.25C61.8438 46.0705 61.5179 46.8574 60.9377 47.4376C60.3575 48.0178 59.5706 48.3438 58.7501 48.3438Z" fill="#005891"/>
</svg>