<svg xmlns="http://www.w3.org/2000/svg" width="100" height="75" viewBox="0 0 100 75" fill="none">
<path fill-rule="evenodd" clip-rule="evenodd" d="M59.811 6.7C60.8046 6.77008 61.5952 7.56069 61.6653 8.55434L62.3008 17.5646C62.3416 18.1426 62.1297 18.7098 61.72 19.1195L49.6237 31.2158C48.8427 31.9968 47.5763 31.9968 46.7953 31.2158L37.1495 21.57C36.3685 20.789 36.3685 19.5227 37.1495 18.7416L49.2458 6.64536C49.6555 6.23566 50.2227 6.02377 50.8007 6.06453L59.811 6.7ZM55.694 16.4144C54.6606 17.4478 52.9851 17.4478 51.9517 16.4144C50.9183 15.381 50.9183 13.7055 51.9517 12.6721C52.9851 11.6387 54.6606 11.6387 55.694 12.6721C56.7273 13.7055 56.7273 15.381 55.694 16.4144ZM32.5188 33.9418C33.0156 33.9769 33.4109 34.3722 33.4459 34.869L33.7514 39.2001C33.7718 39.4891 33.6658 39.7727 33.461 39.9776L27.6243 45.8143C27.2337 46.2048 26.6006 46.2048 26.21 45.8143L21.5734 41.1777C21.1829 40.7872 21.1829 40.154 21.5734 39.7635L27.4102 33.9268C27.615 33.7219 27.8987 33.616 28.1876 33.6364L32.5188 33.9418ZM30.5474 38.6558C30.0462 39.1571 29.2335 39.1571 28.7322 38.6558C28.2309 38.1546 28.2309 37.3419 28.7322 36.8406C29.2335 36.3393 30.0462 36.3393 30.5474 36.8406C31.0487 37.3419 31.0487 38.1546 30.5474 38.6558ZM78.5463 40.9354C78.5112 40.4386 78.1159 40.0433 77.6191 40.0082L73.288 39.7028C72.999 39.6824 72.7154 39.7883 72.5105 39.9932L66.6738 45.8299C66.2833 46.2204 66.2833 46.8536 66.6738 47.2441L71.3104 51.8807C71.7009 52.2712 72.3341 52.2712 72.7246 51.8807L78.5613 46.044C78.7662 45.8391 78.8721 45.5555 78.8517 45.2665L78.5463 40.9354ZM73.8325 44.7222C74.3338 45.2235 75.1465 45.2235 75.6478 44.7222C76.149 44.221 76.149 43.4083 75.6478 42.907C75.1465 42.4057 74.3338 42.4057 73.8325 42.907C73.3313 43.4083 73.3313 44.221 73.8325 44.7222ZM39.3 38.866C39.3 36.6569 41.0909 34.866 43.3 34.866H56.6334C58.8425 34.866 60.6334 36.6569 60.6334 38.866V60.9998C60.6334 61.5521 61.0811 61.9998 61.6334 61.9998H62.8335C63.3858 61.9998 63.8335 61.5521 63.8335 60.9998V58.533C63.8335 56.3239 65.6244 54.533 67.8335 54.533H76.9002C79.1093 54.533 80.9002 56.3239 80.9002 58.533V60.9998C80.9002 61.5521 81.3479 61.9998 81.9002 61.9998H84C84.8284 61.9998 85.5 62.6714 85.5 63.4998C85.5 64.3282 84.8284 64.9998 84 64.9998H16C15.1716 64.9998 14.5 64.3282 14.5 63.4998C14.5 62.6714 15.1716 61.9998 16 61.9998H18.0334C18.5857 61.9998 19.0334 61.5521 19.0334 60.9998V52.533C19.0334 50.3239 20.8243 48.533 23.0334 48.533H32.1001C34.3093 48.533 36.1001 50.3239 36.1001 52.533V60.9998C36.1001 61.5521 36.5478 61.9998 37.1001 61.9998H38.3C38.8523 61.9998 39.3 61.5521 39.3 60.9998V38.866Z" fill="#005891"/>
</svg>