<svg xmlns="http://www.w3.org/2000/svg" width="100" height="75" viewBox="0 0 100 75" fill="none">
<path fill-rule="evenodd" clip-rule="evenodd" d="M37.2368 60H62.6421L63.0942 60C65.6474 60 67.5709 59.4453 68.8646 58.3358C70.1583 57.2263 70.8052 55.562 70.8052 53.3431V21.657C70.8052 19.4527 70.1583 17.7921 68.8646 16.6753C67.5709 15.5584 65.6474 15 63.0942 15L62.6483 15L62.6421 15H37.2368L37.2306 15L36.7847 15C34.2315 15 32.308 15.5584 31.0143 16.6753C29.7206 17.7921 29.0737 19.4527 29.0737 21.657L29.0737 53.3431C29.0737 55.562 29.7206 57.2263 31.0143 58.3358C32.308 59.4453 34.2315 60 36.7847 60L37.2368 60ZM24.9355 55.8175L24.9355 19.1607C23.7703 19.3359 22.875 19.6826 22.2495 20.2009C21.6241 20.7191 21.3113 21.5257 21.3113 22.6206L21.3113 52.3577C21.3113 53.4526 21.6241 54.2628 22.2495 54.7883C22.875 55.3139 23.7703 55.6569 24.9355 55.8175ZM17.8157 51.3066L17.8157 23.6715C16.719 23.7446 15.8923 24.0439 15.3354 24.5694C14.7785 25.095 14.5 25.8687 14.5 26.8906V48.1095C14.5 49.1168 14.7785 49.8869 15.3354 50.4197C15.8923 50.9526 16.719 51.2482 17.8157 51.3066ZM74.9434 55.8175L74.9434 19.1607C76.1086 19.3359 77.0039 19.6826 77.6294 20.2009C78.2548 20.7191 78.5676 21.5257 78.5676 22.6206V52.3577C78.5676 53.4526 78.2548 54.2628 77.6294 54.7883C77.0039 55.3139 76.1086 55.6569 74.9434 55.8175ZM82.0632 51.3066V23.6715C83.1599 23.7446 83.9866 24.0439 84.5436 24.5694C85.1005 25.095 85.3789 25.8687 85.3789 26.8906V48.1095C85.3789 49.1168 85.1005 49.8869 84.5435 50.4197C83.9866 50.9526 83.1599 51.2482 82.0632 51.3066ZM40.991 42.4779C40.9956 42.7173 40.9059 42.9291 40.7217 43.1132C40.5376 43.2974 40.3235 43.3871 40.0795 43.3825C39.8355 43.3779 39.6238 43.2859 39.4442 43.1063L35.6118 39.2739C35.2619 38.924 35.087 38.5534 35.087 38.1621C35.087 37.7708 35.2619 37.4002 35.6118 37.0503L39.4442 33.2179C39.633 33.0291 39.8482 32.9336 40.0899 32.9313C40.3316 32.929 40.5445 33.0199 40.7286 33.2041C40.9128 33.3882 41.0014 33.6011 40.9945 33.8428C40.9876 34.0845 40.892 34.2974 40.7079 34.4816L40.1348 35.0547L37.5798 37.3335L41.3087 37.2368L45.5693 37.2299C45.689 37.2299 45.8063 37.2552 45.9214 37.3058C46.0365 37.3565 46.1401 37.4278 46.2322 37.5199C46.4255 37.7133 46.5164 37.9331 46.5049 38.1794C46.4934 38.4257 46.3887 38.6478 46.1907 38.8457C46.0158 39.0207 45.8109 39.1058 45.5762 39.1012L41.3087 39.0874L37.5798 38.9907L40.1279 41.2626L40.7079 41.8427C40.892 42.0268 40.9864 42.2386 40.991 42.4779ZM63.7183 39.2946L59.8858 43.1271C59.7017 43.3112 59.4876 43.4056 59.2436 43.4102C58.9997 43.4148 58.7856 43.325 58.6015 43.1409C58.4174 42.9567 58.3287 42.7438 58.3355 42.5021C58.3425 42.2604 58.438 42.0475 58.6221 41.8634L59.2022 41.2834L61.7572 39.0046L58.0215 39.1081L53.7677 39.1081C53.6434 39.1127 53.5237 39.0897 53.4086 39.0391C53.2935 38.9884 53.1899 38.9171 53.0979 38.825C52.9046 38.6317 52.8148 38.4107 52.8285 38.1621C52.8424 37.9135 52.946 37.6925 53.1393 37.4992C53.3189 37.3196 53.526 37.2322 53.7608 37.2368L58.0215 37.2575L61.7572 37.3472L59.2022 35.0823L58.6221 34.5023C58.438 34.3181 58.3448 34.1052 58.3425 33.8635C58.3402 33.6218 58.4288 33.4112 58.6083 33.2317C58.7925 33.0475 59.0077 32.9566 59.254 32.9589C59.5003 32.9612 59.7132 33.0522 59.8927 33.2317L63.7252 37.0641C64.0751 37.414 64.25 37.7846 64.25 38.176C64.25 38.5672 64.0728 38.9401 63.7183 39.2946Z" fill="#005891"/>
</svg>