<svg xmlns="http://www.w3.org/2000/svg" width="100" height="75" viewBox="0 0 100 75" fill="none">
<path fill-rule="evenodd" clip-rule="evenodd" d="M32.4379 11.0348C32.1157 10.1642 30.8844 10.1642 30.5622 11.0348L30.205 12.0002C28.4555 16.7281 24.7278 20.4557 20 22.2052L19.0346 22.5624C18.1639 22.8846 18.1639 24.116 19.0346 24.4381L20 24.7954C24.7278 26.5449 28.4555 30.2725 30.205 35.0004L30.2572 35.1416L30.2572 35.1416L30.5622 35.9659C30.8843 36.8365 32.1157 36.8365 32.4379 35.9659L32.4379 35.9658L32.7951 35.0005C34.5446 30.2726 38.2722 26.545 43.0001 24.7955L43.9655 24.4382C44.3031 24.3133 44.5097 24.0518 44.5856 23.7595C44.7053 23.2979 44.4986 22.7597 43.9655 22.5624L43.0001 22.2052C38.2723 20.4557 34.5446 16.7281 32.7951 12.0002L32.4379 11.0348ZM28.7008 36.698L25.0355 40.3632C23.0829 42.3159 23.0829 45.4817 25.0355 47.4343L42.094 64.4928C44.0466 66.4454 47.2124 66.4454 49.165 64.4928L71.3988 42.259C72.423 41.2348 72.9527 39.8167 72.8508 38.3717L71.727 22.4371C71.5518 19.953 69.5753 17.9765 67.0912 17.8013L51.1565 16.6774C49.7116 16.5755 48.2935 17.1053 47.2692 18.1295L44.6976 20.7012C47.2714 21.6893 47.2587 25.3522 44.6596 26.3139L43.6942 26.6712C39.5137 28.2181 36.2177 31.5141 34.6708 35.6945L34.3136 36.66C33.3518 39.2591 29.6889 39.2718 28.7008 36.698ZM60.1067 36.6617C58.1078 38.6607 54.8668 38.6607 52.8679 36.6617C50.8689 34.6628 50.8689 31.4218 52.8679 29.4229C54.8668 27.4239 58.1078 27.4239 60.1067 29.4229C62.1057 31.4218 62.1057 34.6628 60.1067 36.6617ZM72.6366 46.8333C72.9332 46.0318 74.0668 46.0318 74.3634 46.8333C75.5297 49.9852 78.0148 52.4703 81.1667 53.6366C81.9682 53.9332 81.9682 55.0668 81.1667 55.3634C78.0148 56.5297 75.5297 59.0148 74.3634 62.1667C74.0668 62.9682 72.9332 62.9682 72.6366 62.1667C71.4703 59.0148 68.9852 56.5297 65.8333 55.3634C65.0318 55.0668 65.0318 53.9332 65.8333 53.6366C68.9852 52.4703 71.4703 49.9852 72.6366 46.8333Z" fill="#005891"/>
</svg>