<?xml version="1.0" encoding="utf-8"?>
<!-- Generator: Adobe Illustrator 26.0.2, SVG Export Plug-In . SVG Version: 6.00 Build 0)  -->
<svg version="1.1" xmlns="http://www.w3.org/2000/svg" xmlns:xlink="http://www.w3.org/1999/xlink" x="0px" y="0px"
	 viewBox="0 0 881.34 548.26" style="enable-background:new 0 0 881.34 548.26;" xml:space="preserve">
<g id="Layer_1">
</g>
<g id="Layer_3">
</g>
<g id="Layer_2">
	<g>
		<path d="M873.89,230.19c4.65-18.01,7.95-35.63,7.39-54.24c-0.51-17.67-18.04-31.52-35.82-31.97
			c-20.69-0.54-37.81,9.28-52.29,22.92c-14.84,13.97-26.59,30.03-37.09,49.26c-4.01,7.34-8.66,14.41-12.88,21.56
			c-2.71-14.7-3.94-29.15-8.19-42.68c-5.68-18.12-19.06-24.43-37.69-20.98c-23.89,4.43-40.71,19.17-55.21,37.27
			c-6.17,7.72-11.68,15.97-19.06,26.13c0-12.08,0.38-21.63-0.07-31.14c-1.83-39.82-25.53-62.19-64.98-62.19
			c-37.56,0-55.51,11.17-55.51,11.17s-12.69-17.51-56.66-10c-40.37,6.89-70.17,30.94-96.23,60.73c-2.3,2.62-4.7,5.19-7.72,8.5
			c0.2-59.01-20.09-74.28-54.94-70.1c6.12,25.09,2.77,40.12,0,56.6c-8.72,51.63-28.07,95.01-46.3,143.75
			c-19.04,50.85-38.48,101.53-56.95,152.56c-2.91,8.03-2.82,17.65-2.15,26.35c0.94,12.21,12.5,21.85,26.11,23.78
			c15.19,2.17,17.78,0.63,25.23-15.26c2.04-4.38,4.03-8.81,5.59-13.38c19.35-56.24,37.63-112.88,58.21-168.67
			c21.09-57.2,51.49-109.19,96.57-151.15c10.38-9.66,23.62-16.58,36.33-23.31c7.65-4.05,16.62-3.22,26.64,0.94
			c-4.74,3.27-7.49,5.1-10.22,7c-39.39,27.4-72.97,60.15-94.6,103.75c-8.75,17.67-13.04,36.31-11.23,56.19
			c2.01,22.01,16.11,35.48,37.8,36.28c16.87,0.63,31.32-6.02,44.96-14.58c33.53-20.98,59.64-49.3,79.48-83.3
			c19.35-33.11,30.2-67.94,17.85-107.51c5.41-0.58,10.09-1.28,14.81-1.54c28.54-1.57,41.81,12.28,35.93,40.22
			c-4.18,19.89-11.27,39.19-17.72,58.52c-6.93,20.8-15.95,40.98-21.7,62.08c-7.14,26.22,6.93,45.41,32.08,45.66
			c4.61,0.07,11.01-3.04,13.53-6.76c7.29-10.74,13.04-22.5,19.37-33.91c19.13-34.47,37.76-69.26,57.65-103.3
			c5.91-10.07,21.59-32.15,34.51-31.78c4.67,0.13,5.25,7,3.79,14.04c-3.63,17.46-9.84,34.34-13.44,51.76
			c-3.71,18.1-7.85,36.57-7.74,54.85c0.13,20.8,17.02,27.85,33.11,14.52c10.18-8.41,19.33-18.84,26.42-29.98
			c16.37-25.75,30.85-52.68,46.82-78.7c9.73-15.82,20.18-31.27,31.65-45.86c3.74-4.74,10.42-11.98,17.7-11.57
			c5.25,0.29,3.06,15.44,1.45,21.08c-10.54,37.18-22.77,73.89-32.75,111.2c-5.23,19.55-9.86,40.02-9.75,60.04
			c0.13,30,34.94,51.2,62.37,41.16c-2.86-8.72-7.9-17.34-8.1-26.08c-0.43-16.53-0.45-33.78,3.62-49.62
			C852.57,296.74,865.18,263.97,873.89,230.19z M458.24,243.5c-9.95,30.85-26.37,58.29-48.61,81.92
			c-6.8,7.25-14.74,13.82-23.26,18.86c-4.3,2.53-12.53,3.06-16.24,0.51c-3.8-2.62-5.21-10-5.84-15.5
			c-0.54-4.56,1.07-9.62,2.64-14.14c17.52-50.96,53.87-86.12,96.1-116.34c1.54,0.58,3.09,1.14,4.61,1.72
			C464.59,214.87,462.73,229.61,458.24,243.5z"/>
		<path d="M179.78,143.29c-16.02,0.96-32.82,4.25-47.38,10.74c-17.9,7.99-33.82,20.42-51.63,31.56
			c47.69-80.26,106.84-144.01,206.16-157.21c-5.28-14.58-20.24-25.86-37.42-27.67c-32.79-3.44-62.68,6.04-90.71,21.9
			C107.06,51.89,69.48,95.13,40.47,146.15C14.52,191.83-2.04,240.24,0.2,293.79c2.93,69.99,63.69,106.28,126.12,74.74
			c36.53-18.48,64.38-46.6,85.9-81.02c16.89-27,27.76-55.88,26.11-88.47C236.65,165.63,212.49,141.34,179.78,143.29z M108.56,338.13
			c-4.25,3.47-9.37,6.13-14.47,8.28c-20.07,8.37-36.37-0.11-38.81-21.85c-1.48-13.4-0.92-27.63,2.01-40.76
			c8.23-37.09,27.83-68,57.04-92.16c8.95-7.38,19.82-13.58,30.85-17.13c20.92-6.76,32.64,2.33,34.61,24.43
			c0.29,3.33,0.31,6.67,0.47,10.02C172.94,261.26,149.67,304.68,108.56,338.13z"/>
	</g>
</g>
</svg>
