<svg width="24" height="18" viewBox="0 0 24 18" fill="none" xmlns="http://www.w3.org/2000/svg">
<rect width="24" height="17.14" rx="4" fill="#FF0000"/>
<path d="M11.2352 7.29499C10.967 7.13085 10.6825 6.99472 10.3898 6.88262C10.1378 7.25095 9.99152 7.69134 9.99152 8.16776C9.99152 8.40399 10.0281 8.6322 10.0972 8.8484C10.2191 8.57215 10.3736 8.30391 10.5605 8.04766C10.7559 7.7725 10.9822 7.52 11.2352 7.29499ZM10.5199 6.71446C10.8369 6.82257 11.1417 6.96269 11.4344 7.12683C11.4994 7.0708 11.5685 7.02274 11.6335 6.9747C11.3246 6.80654 10.9954 6.67044 10.6581 6.56632C10.6093 6.61438 10.5605 6.66242 10.5199 6.71446ZM10.8044 6.43022C11.1702 6.52629 11.5197 6.6584 11.8489 6.83056C11.9262 6.78252 12.0034 6.73848 12.0765 6.69446C11.727 6.51828 11.3571 6.39019 10.9751 6.29808C10.9148 6.33764 10.8577 6.38182 10.8044 6.43022ZM11.1499 6.19C11.5522 6.27007 11.9424 6.39818 12.3082 6.57433C12.6781 6.39818 13.0682 6.27007 13.4666 6.19C13.1292 5.99382 12.7309 5.88171 12.3082 5.88171C11.8855 5.88171 11.4913 5.99382 11.1499 6.19ZM13.6413 6.3021C13.2599 6.39014 12.8902 6.52182 12.5399 6.69446C12.6166 6.73836 12.6925 6.78373 12.7675 6.83056C13.1007 6.6584 13.4503 6.52629 13.812 6.43022C13.7592 6.38215 13.7023 6.33813 13.6413 6.30208L13.6413 6.3021ZM13.9583 6.57034C13.621 6.67044 13.2958 6.80654 12.9829 6.9747C13.0523 7.02316 13.1201 7.0739 13.1861 7.12683C13.4747 6.96269 13.7795 6.82257 14.0965 6.71446C14.0559 6.66242 14.0112 6.61438 13.9583 6.57034ZM14.2266 6.88661C13.9332 6.99509 13.6514 7.13189 13.3853 7.29499C13.6332 7.51519 13.8567 7.76742 14.06 8.04766C14.2399 8.29946 14.395 8.56758 14.5233 8.8484C14.5883 8.6282 14.6249 8.40399 14.6249 8.16776C14.6249 7.69134 14.4786 7.25093 14.2266 6.88661ZM14.0274 8.45605C13.7836 8.06769 13.4909 7.72338 13.1658 7.43112L12.9463 7.58725C13.495 8.09171 13.938 8.72428 14.2184 9.46095C14.2835 9.36487 14.3444 9.26477 14.3932 9.16467C14.2916 8.92448 14.1697 8.68825 14.0274 8.45605ZM12.739 7.41512C12.8122 7.36306 12.8853 7.311 12.9626 7.26296C12.8975 7.20693 12.8284 7.15487 12.7593 7.10281L12.5277 7.25095H12.5318C12.6008 7.30301 12.6699 7.35904 12.739 7.41509V7.41512ZM12.3082 7.0948L12.5399 6.95468L12.3082 6.81455C12.231 6.8586 12.1578 6.90664 12.0806 6.95468C12.1578 6.99872 12.231 7.04676 12.3082 7.0948ZM12.0887 7.25095C12.0115 7.19889 11.9384 7.15085 11.8611 7.10281L11.6539 7.25896L11.8774 7.4111C11.9461 7.3555 12.0166 7.30209 12.0887 7.25095ZM12.3082 7.4111C12.2391 7.46313 12.17 7.51918 12.0969 7.57926C12.17 7.63529 12.2391 7.69534 12.3082 7.75539C12.3773 7.69534 12.4464 7.63529 12.5196 7.57926C12.4504 7.5232 12.3814 7.46313 12.3082 7.4111ZM12.3082 8.15977C11.9906 8.49715 11.7212 8.87565 11.5075 9.28479C11.3571 9.56504 11.2393 9.85732 11.1499 10.1496C11.4913 10.3378 11.8855 10.4498 12.3082 10.4498C12.7309 10.4498 13.1252 10.3377 13.4666 10.1496C13.3771 9.85732 13.2593 9.56504 13.1089 9.28477C12.8894 8.86443 12.6212 8.48806 12.3082 8.15977ZM10.967 9.67715C11.2311 9.01254 11.6213 8.43203 12.1009 7.95156C12.0318 7.88752 11.9627 7.82747 11.8896 7.76342C11.3328 8.2959 10.8857 8.95649 10.6134 9.72117C10.6899 9.80462 10.7728 9.88225 10.8613 9.9534C10.8938 9.86131 10.9304 9.76923 10.967 9.67715ZM12.5155 7.95156C12.9951 8.43203 13.3852 9.01254 13.6535 9.67715C13.6901 9.76923 13.7226 9.86131 13.7551 9.9534C13.8445 9.88134 13.9299 9.80526 14.0071 9.72119C13.7307 8.95649 13.2836 8.2959 12.7268 7.76342L12.5155 7.95159V7.95156ZM10.398 9.46095C10.6784 8.72428 11.1214 8.0957 11.6742 7.59127C11.6013 7.53564 11.5268 7.48223 11.4506 7.43112C11.1255 7.72737 10.8329 8.07168 10.589 8.46004C10.4487 8.6852 10.3264 8.92079 10.2232 9.16467C10.272 9.26876 10.3329 9.36487 10.398 9.46095ZM12.3204 5.69755C13.751 5.69755 14.9175 6.84659 14.9175 8.25585C14.9175 9.66511 13.751 10.8142 12.3204 10.8142C10.8898 10.8142 9.72327 9.66514 9.72327 8.25585C9.72327 6.84656 10.8897 5.69755 12.3204 5.69755ZM13.4666 5.13703C13.3934 5.22112 13.3121 5.32921 13.2308 5.50135C13.2105 5.45733 13.2105 5.40529 13.2227 5.34924C13.243 5.16507 13.2959 5.05296 13.3934 4.89681C13.4259 4.84078 13.4584 4.79272 13.4747 4.73267C13.5356 4.55252 13.5235 4.3123 13.3893 4.12414C13.4096 4.33632 13.3446 4.51247 13.2715 4.62056C13.2593 4.64059 13.2471 4.6526 13.2308 4.66863C13.1536 4.74468 13.0682 4.82076 12.9585 4.99691C12.8975 5.09299 12.8366 5.20909 12.7797 5.39326C12.7553 5.35323 12.7472 5.30519 12.7512 5.24914C12.7431 5.06095 12.7756 4.94487 12.8447 4.77272C12.8691 4.71267 12.8935 4.66061 12.9016 4.59654C12.9301 4.41238 12.8813 4.17618 12.7187 4.01201C12.7715 4.2162 12.739 4.40037 12.6821 4.52049C12.6699 4.54049 12.6618 4.55652 12.6496 4.57252C12.5846 4.66061 12.5155 4.74867 12.4301 4.93684C12.3895 5.04495 12.3448 5.16907 12.3204 5.35723C12.2879 5.3212 12.2716 5.27316 12.2676 5.21711C12.231 5.03294 12.2432 4.91284 12.2838 4.73269C12.3001 4.67262 12.3163 4.61657 12.3123 4.5525C12.3123 4.36434 12.2269 4.14015 12.04 4C12.1253 4.19618 12.1213 4.38436 12.0847 4.51247C12.0765 4.52848 12.0684 4.5485 12.0603 4.56451C12.0115 4.66461 11.9546 4.76071 11.9018 4.96088C11.8774 5.07299 11.853 5.2051 11.8571 5.39328C11.8245 5.36125 11.8002 5.3172 11.7839 5.26514C11.7189 5.085 11.7107 4.96889 11.727 4.78073C11.7311 4.71666 11.7351 4.66061 11.727 4.60056C11.6945 4.41238 11.5726 4.20419 11.3693 4.0961C11.4831 4.27625 11.5075 4.46443 11.4913 4.59255L11.4791 4.6526C11.4466 4.75669 11.4059 4.86078 11.3856 5.06897C11.3774 5.18108 11.3734 5.31318 11.41 5.50137C11.3693 5.47333 11.3409 5.43331 11.3165 5.38527C11.223 5.21711 11.1986 5.101 11.1824 4.91684C11.1783 4.85277 11.1742 4.79674 11.1499 4.73669C11.093 4.55652 10.9385 4.36836 10.7191 4.29627C10.8613 4.45242 10.9182 4.63257 10.9182 4.7647C10.9182 4.78473 10.9182 4.80473 10.9141 4.82475C10.8979 4.93284 10.8776 5.04495 10.8897 5.24914C10.9019 5.36125 10.9182 5.49335 10.9832 5.6735C10.9385 5.6535 10.9019 5.61747 10.8694 5.57343C10.7516 5.42529 10.7109 5.31321 10.6662 5.13304C10.65 5.06897 10.6378 5.01693 10.6052 4.95688C10.5199 4.79272 10.337 4.62858 10.1094 4.58855C10.272 4.72466 10.3573 4.89684 10.3817 5.02492C10.3858 5.04495 10.3858 5.06497 10.3858 5.08497C10.3898 5.19309 10.3858 5.30519 10.4305 5.50938C10.4589 5.61747 10.4955 5.74558 10.589 5.90973C10.5443 5.89772 10.5036 5.8697 10.463 5.82965C10.3207 5.70154 10.2598 5.59745 10.1907 5.42529C10.1663 5.36524 10.1419 5.31321 10.1053 5.26115C9.99152 5.11301 9.78829 4.9809 9.55258 4.97689C9.73954 5.085 9.84927 5.23713 9.89398 5.36125L9.90618 5.4213C9.9265 5.52938 9.9387 5.64149 10.0159 5.83367C10.0606 5.93777 10.1216 6.05786 10.2394 6.20602C10.1907 6.20201 10.146 6.17799 10.1013 6.14595C9.94275 6.04186 9.86552 5.94578 9.76393 5.78963C9.73141 5.7336 9.70297 5.68554 9.65418 5.64149C9.52006 5.50938 9.29653 5.40929 9.06486 5.44132C9.26401 5.52139 9.39812 5.6575 9.46316 5.77362C9.4713 5.78963 9.47941 5.80965 9.48754 5.82965C9.52412 5.92975 9.55258 6.03786 9.65826 6.21801C9.71922 6.31411 9.79645 6.4222 9.9387 6.55431C9.88993 6.55431 9.84114 6.5383 9.79237 6.51428C9.6176 6.43421 9.5282 6.35414 9.40626 6.21402C9.36154 6.16598 9.32497 6.12193 9.27214 6.08188C9.11768 5.9738 8.88195 5.90973 8.65842 5.97779C8.86976 6.02583 9.0242 6.13794 9.10143 6.24203C9.11768 6.25806 9.12582 6.27406 9.13395 6.29409C9.18678 6.39017 9.23557 6.49426 9.36968 6.65041C9.44283 6.73848 9.53631 6.83458 9.69483 6.94267C9.65012 6.95068 9.60135 6.94267 9.54445 6.92264C9.36157 6.8746 9.25995 6.80656 9.11768 6.68644C9.06891 6.64639 9.0242 6.61036 8.96732 6.57835C8.79661 6.49426 8.55274 6.47024 8.3414 6.57031C8.5568 6.58235 8.72751 6.67443 8.82505 6.76252C8.83724 6.77852 8.84943 6.79053 8.86162 6.81056C8.93074 6.89463 8.9917 6.99071 9.1502 7.12683C9.23557 7.19889 9.3453 7.27896 9.52004 7.36306C9.47535 7.37906 9.42253 7.37906 9.36968 7.36708C9.17864 7.34703 9.06891 7.29497 8.90634 7.19889C8.84946 7.16688 8.80066 7.13482 8.7397 7.11882C8.55682 7.05877 8.31702 7.07078 8.12598 7.20291C8.33734 7.18289 8.52022 7.24695 8.62998 7.31899C8.64622 7.33102 8.66247 7.34303 8.67466 7.35904C8.75595 7.43512 8.83318 7.51918 9.00795 7.6273C9.10549 7.68735 9.22743 7.75141 9.41031 7.80345C9.36968 7.82747 9.32091 7.83548 9.26401 7.83548C9.07297 7.8395 8.95513 7.80744 8.78036 7.73938C8.7194 7.71536 8.66655 7.69134 8.60151 7.68335C8.41455 7.65531 8.17477 7.70335 8.00811 7.8635C8.2154 7.81146 8.40644 7.84347 8.5243 7.89953C8.54461 7.91154 8.56088 7.91955 8.57713 7.93156C8.66655 7.99563 8.75595 8.06369 8.95105 8.14776C9.05672 8.18779 9.18272 8.23183 9.37374 8.25585C9.33716 8.28788 9.28839 8.30389 9.23557 8.30791C9.04453 8.34793 8.92669 8.33193 8.73973 8.29188C8.67874 8.27587 8.62184 8.26386 8.5568 8.26386C8.36578 8.26386 8.13819 8.34793 8 8.5321C8.19507 8.44803 8.38611 8.45203 8.51617 8.48808C8.5365 8.49607 8.55274 8.50408 8.57305 8.5121C8.67061 8.56014 8.77222 8.61619 8.97543 8.66823C9.08518 8.69225 9.2193 8.71627 9.41031 8.71227C9.37782 8.7443 9.3331 8.7683 9.28026 8.78433C9.10143 8.8484 8.97951 8.85641 8.79255 8.84038C8.72751 8.83636 8.67063 8.83237 8.60559 8.84038C8.41863 8.87242 8.20726 8.99252 8.09754 9.19671C8.27636 9.0806 8.46738 9.05658 8.60154 9.07259L8.65842 9.0846C8.76409 9.12065 8.86976 9.15668 9.0811 9.17668C9.19491 9.18472 9.32902 9.18869 9.52006 9.15266C9.4916 9.19271 9.45097 9.22075 9.4022 9.24474C9.23557 9.33683 9.11362 9.36085 8.92666 9.37688C8.86162 9.38487 8.80474 9.38889 8.74378 9.40891C8.56088 9.46494 8.37392 9.6171 8.29669 9.83327C8.45926 9.69315 8.64217 9.64112 8.77628 9.6371C8.79661 9.6371 8.81694 9.6371 8.83724 9.64112C8.94291 9.65712 9.05672 9.67715 9.26806 9.66514C9.38187 9.65712 9.51598 9.6371 9.69483 9.57305C9.67856 9.6171 9.64198 9.65313 9.59322 9.68516C9.44283 9.80124 9.32905 9.84129 9.14614 9.88533C9.08518 9.90134 9.02828 9.91335 8.97138 9.94538C8.80066 10.0295 8.63809 10.2096 8.59746 10.4338C8.73157 10.2737 8.90634 10.1896 9.03642 10.1656C9.05672 10.1616 9.07705 10.1616 9.09738 10.1616C9.2071 10.1576 9.32497 10.1616 9.52818 10.1175C9.63793 10.0895 9.76798 10.0535 9.9387 9.96141C9.9265 10.0054 9.89398 10.0495 9.85333 10.0855C9.72327 10.2257 9.6176 10.2857 9.44283 10.3538C9.38595 10.3818 9.3331 10.4018 9.28026 10.4378C9.12582 10.5499 8.9917 10.7501 8.98762 10.9823C9.09738 10.7981 9.25587 10.6901 9.38187 10.646L9.43875 10.634C9.5485 10.614 9.66231 10.602 9.85741 10.5259C9.96308 10.4819 10.085 10.4218 10.2394 10.3097C10.2313 10.3538 10.211 10.3978 10.1744 10.4418C10.0688 10.598 9.97527 10.6741 9.8127 10.7741C9.75985 10.8062 9.71108 10.8342 9.66231 10.8822C9.5282 11.0143 9.43064 11.2345 9.46316 11.4628C9.54039 11.2666 9.67856 11.1345 9.79645 11.0704C9.81675 11.0624 9.83302 11.0544 9.85333 11.0464C9.959 11.0143 10.0688 10.9823 10.2476 10.8782C10.3451 10.8182 10.4549 10.7421 10.589 10.602C10.5931 10.65 10.5768 10.6981 10.5483 10.7461C10.4671 10.9183 10.3858 11.0063 10.2435 11.1265C10.1948 11.1705 10.15 11.2065 10.1134 11.2586C10.0037 11.4107 9.9387 11.6429 10.0078 11.8631C10.0525 11.6549 10.1663 11.5028 10.276 11.4267C10.2923 11.4147 10.3085 11.4027 10.3248 11.3947C10.4223 11.3427 10.528 11.2946 10.6906 11.1625C10.7759 11.0904 10.8735 10.9983 10.9832 10.8422C10.9914 10.8862 10.9832 10.9383 10.967 10.9903C10.9141 11.1705 10.8491 11.2706 10.7231 11.4107C10.6825 11.4588 10.6459 11.5028 10.6174 11.5629C10.5321 11.731 10.5036 11.9672 10.6052 12.1754C10.6215 11.9632 10.7109 11.7951 10.8044 11.703C10.8166 11.687 10.8328 11.675 10.8491 11.6629C10.9385 11.5949 11.032 11.5348 11.1702 11.3787C11.2433 11.2946 11.3246 11.1865 11.41 11.0144C11.4262 11.0584 11.4262 11.1104 11.4181 11.1625C11.3937 11.3507 11.345 11.4588 11.2474 11.6189C11.2108 11.6749 11.1824 11.723 11.162 11.783C11.1052 11.9632 11.1174 12.2034 11.2515 12.3916C11.2311 12.1794 11.2921 11.9992 11.3693 11.8911C11.3815 11.8751 11.3937 11.8591 11.4059 11.8471C11.4831 11.767 11.5685 11.691 11.6823 11.5188C11.7392 11.4227 11.8042 11.3026 11.8571 11.1225C11.8814 11.1625 11.8896 11.2105 11.8896 11.2666C11.8977 11.4548 11.8652 11.5708 11.792 11.743C11.7676 11.803 11.7473 11.8551 11.7351 11.9192C11.7067 12.1033 11.7554 12.3395 11.918 12.5037C11.8652 12.2995 11.8977 12.1113 11.9587 11.9952C11.9668 11.9752 11.9749 11.9592 11.9871 11.9432C12.0522 11.8551 12.1253 11.767 12.2066 11.5749C12.2513 11.4708 12.296 11.3467 12.3204 11.1585C12.3488 11.1945 12.3651 11.2426 12.3732 11.2946C12.4098 11.4828 12.3976 11.5989 12.3529 11.783C12.3367 11.8431 12.3245 11.8992 12.3245 11.9632C12.3245 12.1514 12.4139 12.3756 12.6008 12.5117C12.5155 12.3195 12.5155 12.1314 12.5561 12.0032C12.5602 11.9832 12.5683 11.9672 12.5765 11.9472C12.6252 11.8511 12.6821 11.751 12.735 11.5508C12.7593 11.4427 12.7837 11.3106 12.7797 11.1225C12.8162 11.1545 12.8366 11.1985 12.8528 11.2506C12.9219 11.4267 12.926 11.5468 12.9138 11.735C12.9057 11.7951 12.9016 11.8511 12.9138 11.9152C12.9422 12.1033 13.0642 12.3115 13.2715 12.4196C13.1576 12.2395 13.1292 12.0513 13.1495 11.9232C13.1495 11.9031 13.1536 11.8831 13.1617 11.8631C13.1942 11.759 13.2349 11.6549 13.2552 11.4468C13.2593 11.3346 13.2633 11.2025 13.2308 11.0143C13.2674 11.0424 13.2999 11.0824 13.3243 11.1305C13.4178 11.2946 13.4421 11.4147 13.4584 11.5989C13.4625 11.663 13.4666 11.719 13.4869 11.779C13.5478 11.9592 13.6982 12.1434 13.9218 12.2194C13.7795 12.0593 13.7226 11.8791 13.7185 11.747C13.7185 11.727 13.7185 11.707 13.7226 11.687C13.7389 11.5829 13.7632 11.4708 13.747 11.2626C13.7389 11.1505 13.7185 11.0184 13.6576 10.8422C13.6982 10.8622 13.7348 10.8943 13.7673 10.9423C13.8852 11.0904 13.9299 11.2025 13.9746 11.3827C13.9868 11.4427 14.003 11.4988 14.0315 11.5548C14.1209 11.723 14.2997 11.8831 14.5314 11.9232C14.3648 11.7911 14.2794 11.6189 14.255 11.4908C14.251 11.4708 14.251 11.4507 14.251 11.4307C14.251 11.3226 14.255 11.2105 14.2103 11.0064C14.1819 10.8982 14.1412 10.7701 14.0478 10.602C14.0965 10.614 14.1372 10.646 14.1738 10.6861C14.316 10.8142 14.377 10.9183 14.4501 11.0904C14.4745 11.1465 14.4948 11.1985 14.5355 11.2506C14.6493 11.4027 14.8525 11.5348 15.0842 11.5388C14.9013 11.4307 14.7915 11.2746 14.7468 11.1505C14.7387 11.1305 14.7346 11.1144 14.7306 11.0944C14.7143 10.9863 14.698 10.8742 14.6208 10.682C14.5761 10.578 14.5192 10.4579 14.4014 10.3097C14.4501 10.3137 14.4948 10.3337 14.5395 10.3698C14.698 10.4739 14.7753 10.5659 14.8728 10.7261C14.9053 10.7781 14.9378 10.8302 14.9826 10.8742C15.1167 11.0063 15.3402 11.1024 15.5719 11.0704C15.3727 10.9943 15.2386 10.8582 15.1776 10.7421C15.1654 10.7221 15.1573 10.7061 15.1532 10.6861C15.1167 10.582 15.0842 10.4739 14.9785 10.2977C14.9175 10.2016 14.8403 10.0935 14.7021 9.96141C14.7468 9.96141 14.7956 9.97342 14.8484 10.0014C15.0191 10.0815 15.1126 10.1616 15.2345 10.3017C15.2752 10.3497 15.3118 10.3938 15.3646 10.4298C15.5191 10.5419 15.7548 10.602 15.9783 10.5379C15.771 10.4899 15.6166 10.3778 15.5353 10.2697C15.5231 10.2537 15.5109 10.2377 15.5028 10.2216C15.45 10.1256 15.4052 10.0215 15.2711 9.86131C15.1939 9.77724 15.1004 9.68117 14.9419 9.57305C14.9907 9.56504 15.0394 9.57305 15.0923 9.58906C15.2752 9.64112 15.3768 9.70916 15.5231 9.82928C15.5719 9.86933 15.6166 9.90536 15.6735 9.93337C15.8442 10.0174 16.084 10.0455 16.2953 9.94538C16.0799 9.92938 15.9133 9.84129 15.8157 9.74921C15.7995 9.7372 15.7873 9.72119 15.7751 9.70516C15.71 9.6171 15.645 9.52501 15.4906 9.38889C15.4012 9.31683 15.2914 9.23675 15.1208 9.15266C15.1654 9.13666 15.2142 9.13666 15.2711 9.14467C15.4581 9.16869 15.5719 9.21673 15.7304 9.31683C15.7873 9.34884 15.8361 9.37688 15.897 9.3969C16.0799 9.45293 16.3238 9.44092 16.5148 9.30881C16.2994 9.32884 16.1206 9.26876 16.0108 9.19271L15.962 9.15668C15.8848 9.0806 15.8076 8.99653 15.6288 8.88443C15.5312 8.8284 15.4134 8.76433 15.2264 8.71227C15.2671 8.68825 15.3199 8.68024 15.3727 8.68024C15.5678 8.67225 15.6857 8.70426 15.8564 8.77634C15.9173 8.80036 15.9702 8.82036 16.0352 8.83237C16.2222 8.86041 16.462 8.81237 16.6286 8.65222C16.4213 8.70426 16.2344 8.67225 16.1124 8.61217C16.0962 8.60418 16.0759 8.59617 16.0596 8.58416C15.9702 8.52009 15.8808 8.45203 15.6898 8.36796C15.5841 8.32793 15.454 8.28389 15.263 8.25585C15.2996 8.22784 15.3483 8.21183 15.4052 8.20382C15.5922 8.16779 15.7141 8.1798 15.897 8.22384C15.958 8.23984 16.0149 8.25185 16.0799 8.25185C16.271 8.25185 16.4985 8.16377 16.6408 7.98362C16.4417 8.06369 16.2506 8.06369 16.1246 8.02364C16.1043 8.01963 16.084 8.01163 16.0677 8.00362C15.9661 7.95558 15.8686 7.89953 15.6654 7.84749C15.5516 7.82347 15.4215 7.79945 15.2264 7.80345C15.2589 7.76742 15.3036 7.74742 15.3565 7.73139C15.5394 7.6633 15.6613 7.65931 15.8482 7.67134C15.9133 7.67933 15.9702 7.68335 16.0352 7.67134C16.2222 7.6433 16.4335 7.5232 16.5433 7.31901C16.3604 7.43112 16.1734 7.45914 16.0393 7.44313C16.019 7.43911 15.9986 7.43512 15.9783 7.4271C15.8726 7.39509 15.767 7.35504 15.5597 7.33502C15.4459 7.331 15.3077 7.32703 15.1207 7.36306C15.1451 7.32301 15.1858 7.29097 15.2386 7.26695C15.4052 7.17487 15.5231 7.15088 15.7101 7.13485C15.7751 7.13083 15.832 7.12683 15.893 7.10681C16.0759 7.04676 16.2669 6.89862 16.34 6.67843C16.1815 6.81855 15.9986 6.8746 15.8645 6.87862C15.8442 6.87862 15.8239 6.87862 15.8036 6.8746C15.6938 6.8586 15.58 6.83458 15.3727 6.85058C15.2589 6.8586 15.1248 6.87862 14.9419 6.94267C14.9622 6.89862 14.9988 6.86259 15.0435 6.83056C15.1939 6.71448 15.3077 6.67044 15.4906 6.62639C15.5525 6.61564 15.6126 6.59679 15.6694 6.57034C15.8361 6.48225 16.0027 6.3061 16.0433 6.07789C15.9052 6.24203 15.7345 6.32612 15.6003 6.35014C15.58 6.35414 15.5597 6.35414 15.5394 6.35414C15.4296 6.35414 15.3158 6.35012 15.1126 6.39419C14.9988 6.4222 14.8688 6.46223 14.7021 6.55431C14.7143 6.50627 14.7428 6.46625 14.7834 6.43019C14.9135 6.29007 15.0191 6.23002 15.1939 6.15796C15.2549 6.13394 15.3077 6.11392 15.3605 6.07389C15.5109 5.96179 15.645 5.76159 15.6491 5.5334C15.5394 5.71355 15.3849 5.82166 15.2589 5.86571C15.2386 5.8737 15.2183 5.87772 15.198 5.88171C15.0882 5.90174 14.9744 5.91375 14.7793 5.9898C14.6777 6.03384 14.5558 6.0899 14.4013 6.206C14.4054 6.16196 14.4298 6.11392 14.4623 6.06987C14.568 5.91375 14.6655 5.83767 14.824 5.74159C14.8809 5.70956 14.9297 5.67752 14.9744 5.63348C15.1085 5.50137 15.2102 5.28117 15.1776 5.05296C15.0963 5.24914 14.9582 5.38125 14.8403 5.44532C14.824 5.45333 14.8037 5.46132 14.7875 5.46534C14.6818 5.50137 14.572 5.5334 14.3892 5.6375C14.2916 5.69755 14.1819 5.77362 14.0478 5.90973C14.0478 5.86571 14.064 5.81764 14.0884 5.7696C14.1697 5.59745 14.251 5.50938 14.3932 5.38527C14.442 5.34522 14.4867 5.30919 14.5274 5.25713C14.6371 5.105 14.7021 4.87279 14.633 4.65262C14.5842 4.85679 14.4704 5.00892 14.3648 5.08899C14.3485 5.101 14.3323 5.11301 14.3119 5.12103C14.2144 5.17306 14.1087 5.21711 13.9502 5.34924C13.8608 5.42529 13.7632 5.51737 13.6576 5.67353C13.6454 5.62948 13.6535 5.57745 13.6738 5.52539C13.7267 5.34524 13.7917 5.24514 13.9136 5.10103C13.9543 5.05296 13.9949 5.01291 14.0234 4.95287C14.1087 4.78473 14.1331 4.5485 14.0315 4.34032C14.0193 4.5525 13.9299 4.71666 13.8364 4.81274C13.8201 4.82875 13.808 4.84076 13.7917 4.85279C13.7023 4.91686 13.6047 4.9809 13.4666 5.13703Z" fill="#FFFF00"/>
</svg>
