<svg xmlns="http://www.w3.org/2000/svg" xmlns:xlink="http://www.w3.org/1999/xlink" version="1.1" width="865.79pt" height="373.223pt" viewBox="0 0 865.79 373.223">
<defs>
<clipPath id="clip_0">
<path transform="matrix(1,0,0,-1,0,373.223)" d="M0 373.223H865.79V0H0Z"/>
</clipPath>
</defs>
<g id="layer_1" data-name="Layer">
<g clip-path="url(#clip_0)">
<path transform="matrix(1,0,0,-1,422.6736,219.88599)" d="M0 0C0-.904 .247-1.631 .741-2.182 1.234-2.731 1.969-3.141 2.942-3.409 3.917-3.678 4.926-3.868 5.971-3.98L5.378-6.775H-17.868L-17.276-3.98C-14.396-3.755-12.66-3.501-12.068-3.218-10.487-2.569-9.442-1.158-8.935 1.016L2.244 49.668H-21.934L-32.985 1.481-33.155 .084C-33.155-.48-33.069-.981-32.9-1.419-32.731-1.857-32.449-2.244-32.054-2.584-31.658-2.922-31.002-3.212-30.085-3.451-29.168-3.691-28.215-3.868-27.227-3.98L-27.861-6.775H-51.108L-50.473-3.98C-47.48-3.699-45.717-3.445-45.181-3.218-43.684-2.569-42.682-1.158-42.174 1.016L-32.012 44.841C-31.899 45.18-31.842 45.631-31.842 46.196-31.842 47.071-32.089 47.805-32.583 48.398-33.077 48.991-33.867 49.47-34.954 49.837-36.041 50.204-37.135 50.444-38.235 50.557L-37.643 53.31H19.14L18.546 50.557C16.739 50.416 15.003 50.063 13.338 49.499 11.842 48.934 10.826 47.522 10.29 45.264L.169 1.481Z" fill="#005891"/>
<path transform="matrix(1,0,0,-1,483.6883,187.1975)" d="M0 0C0 5.758-1.079 10.274-3.239 13.549-5.398 16.824-8.483 18.461-12.491 18.461-16.415 18.461-19.979 16.888-23.183 13.74-26.387 10.592-28.991 6.012-30.995 0-32.999-6.013-34.001-12.195-34.001-18.547-34.001-24.531-32.922-29.168-30.762-32.456-28.603-35.745-25.519-37.389-21.51-37.389-17.53-37.389-13.931-35.787-10.713-32.583-7.495-29.38-4.905-24.807-2.943-18.863-.98-12.922 0-6.634 0 0M9.95-2.54C9.95-9.457 8.44-15.864 5.42-21.765 2.398-27.665-1.616-32.336-6.627-35.78-11.637-39.225-16.895-40.946-22.399-40.946-28.864-40.946-34.079-38.702-38.045-34.213-42.012-29.725-43.994-23.839-43.994-16.556-43.994-9.754-42.54-3.408-39.633 2.477-36.726 8.363-32.752 13.091-27.714 16.662-22.674 20.233-17.318 22.019-11.645 22.019-7.409 22.019-3.642 21.009-.339 18.99 2.964 16.972 5.505 14.085 7.283 10.332 9.062 6.577 9.95 2.287 9.95-2.54" fill="#005891"/>
<path transform="matrix(1,0,0,-1,534.1834,198.84099)" d="M0 0C-5.788-3.332-10.869-4.997-15.244-4.997-19.563-4.997-22.929-4.038-25.343-2.118-27.757-.199-28.963 2.511-28.963 6.012-28.963 7.705-28.752 9.47-28.328 11.305L-25.491 23.796-25.322 25.151C-25.322 26.591-25.894 27.6-27.036 28.179-28.18 28.757-29.627 29.202-31.377 29.512L-30.784 32.265H-7.538L-8.13 29.512-9.273 29.343C-11.871 29.004-13.607 28.475-14.481 27.755-15.357 27.036-15.992 25.828-16.388 24.135L-18.801 13.125C-19.253 11.234-19.479 9.582-19.479 8.171-19.479 3.09-16.684 .55-11.095 .55-9.062 .55-7.149 .768-5.357 1.206-3.564 1.643-1.511 2.455 .804 3.641L5.462 23.796C5.603 24.106 5.674 24.559 5.674 25.151 5.674 26.647 4.946 27.719 3.492 28.369 2.038 29.018 .733 29.399-.424 29.512L.212 32.265H23.415L22.822 29.512C21.383 29.371 19.971 29.11 18.588 28.729 17.204 28.348 16.266 27.797 15.772 27.078 15.278 26.358 14.89 25.405 14.607 24.219L4.53-19.563C4.417-19.931 4.361-20.425 4.361-21.045 4.361-21.864 4.579-22.556 5.018-23.12 5.454-23.685 6.175-24.122 7.177-24.433 8.178-24.744 9.202-24.94 10.247-25.025L9.653-27.82H-14.481L-13.847-25.025C-10.544-24.771-8.611-24.518-8.046-24.263-6.296-23.614-5.166-22.203-4.658-20.029Z" fill="#005891"/>
<path transform="matrix(1,0,0,-1,607.5692,182.87859)" d="M0 0H-2.88C-3.021 3.584-3.578 6.57-4.552 8.956-5.525 11.34-6.762 12.632-8.257 12.83-9.895 13.084-11.941 13.211-14.396 13.211H-16.727L-27.735-34.425-28.116-36.753C-28.116-37.319-28.018-37.813-27.819-38.236-27.622-38.659-27.326-39.026-26.931-39.336-26.535-39.647-25.604-39.979-24.136-40.332-22.668-40.685-21.44-40.903-20.452-40.988L-21.172-43.783H-47.763L-47.086-40.988-45.604-40.861C-44.306-40.749-43.028-40.585-41.771-40.375-40.516-40.163-39.514-39.697-38.766-38.977-38.018-38.257-37.432-37.135-37.008-35.611L-25.745 13.211H-27.819C-29.881 13.211-32.054 13.084-34.341 12.83-35.837 12.604-37.813 11.065-40.269 8.215-42.725 5.363-44.56 2.625-45.773 0H-48.822L-45.265 16.302H3.726Z" fill="#005891"/>
<path transform="matrix(1,0,0,-1,633.7576,178.68669)" d="M0 0-13.338-23.628H2.71ZM19.012-47.975H-3.811L-3.219-45.18C-.819-44.898 .798-44.629 1.63-44.375 2.463-44.121 3.126-43.812 3.62-43.443 4.113-43.077 4.361-42.597 4.361-42.005L2.964-27.058H-15.328C-16.57-29.062-18.123-31.842-19.986-35.399-21.85-38.955-22.781-41.129-22.781-41.919-22.781-42.823-22.104-43.564-20.748-44.143-19.394-44.722-17.742-45.067-15.794-45.18L-16.302-47.975H-37.729L-37.093-45.18C-34.553-44.954-32.448-44.227-30.783-42.999-29.118-41.771-27.637-40.014-26.338-37.728-22.838-31.97-17.968-23.741-11.729-13.041L3.387 13H6.774L12.999-39.04C13.225-40.818 13.859-42.237 14.904-43.295 15.948-44.354 17.516-44.982 19.604-45.18Z" fill="#005891"/>
<path transform="matrix(1,0,0,-1,707.2869,188.0022)" d="M0 0H-3.473V1.652C-3.473 7.721-4.51 12.188-6.584 15.053-8.659 17.918-11.758 19.351-15.879 19.351-19.916 19.351-23.628 17.812-27.015 14.735-30.402 11.658-33.092 7.474-35.082 2.181-37.072-3.111-38.066-8.892-38.066-15.159-38.066-21.312-36.732-26.231-34.065-29.915-31.398-33.6-27.82-35.441-23.331-35.441-19.718-35.441-16.353-34.27-13.232-31.927-10.113-29.584-7.468-26.252-5.294-21.934L-2.244-23.5C-5.35-29.203-8.921-33.388-12.957-36.056-16.995-38.723-21.75-40.057-27.227-40.057-31.18-40.057-34.75-39.067-37.939-37.093-41.13-35.117-43.628-32.314-45.435-28.687-47.241-25.061-48.145-20.875-48.145-16.133-48.145-9.302-46.69-2.865-43.783 3.176-40.876 9.216-36.944 14.001-31.99 17.53-27.036 21.059-21.694 22.823-15.964 22.823-12.718 22.823-9.838 22.421-7.326 21.616-4.813 20.812-2.781 19.802-1.229 18.589L1.228 21.426H4.699Z" fill="#005891"/>
<path transform="matrix(1,0,0,-1,768.1317,219.80199)" d="M0 0C0-1.27 .578-2.23 1.736-2.879 2.018-3.048 2.844-3.281 4.214-3.578 5.582-3.874 6.521-4.037 7.029-4.064L6.437-6.859H-18.885L-18.292-4.064-16.895-3.938C-14.298-3.768-12.583-3.486-11.75-3.091-10.918-2.696-10.289-2.159-9.865-1.481-9.441-.804-9.132-.028-8.934 .847L1.229 44.842 1.397 46.281C1.397 47.636 .678 48.603-.762 49.182-2.202 49.76-3.825 50.191-5.632 50.473L-4.996 53.226H20.325L19.774 50.473C17.629 50.304 15.61 49.951 13.72 49.415 11.969 48.85 10.84 47.467 10.332 45.265L.212 1.312C.07 .805 0 .366 0 0M-26.168 13.254C-26.168 16.839-27.021 19.584-28.729 21.489-30.437 23.395-33.196 24.348-37.008 24.348-38.335 24.348-39.93 24.263-41.792 24.093L-46.915 1.736C-47.143 .89-47.255 .099-47.255-.635-47.255-1.68-46.683-2.47-45.539-3.006-44.396-3.543-42.852-3.811-40.903-3.811-37.883-3.811-35.279-3.069-33.091-1.588-30.904-.105-29.203 1.934-27.988 4.531-26.774 7.128-26.168 10.035-26.168 13.254M-34.764 27.82C-22.089 27.82-15.751 23.049-15.751 13.508-15.751 9.471-16.838 5.914-19.012 2.838-21.187-.24-24.192-2.625-28.03-4.319-31.87-6.013-36.133-6.859-40.818-6.859H-65.208L-64.573-4.064-63.303-3.938C-60.762-3.74-59.04-3.302-58.137-2.625-57.233-1.947-56.556-.635-56.104 1.312L-46.027 44.757-45.857 46.112C-45.857 47.354-46.281 48.278-47.127 48.885-47.975 49.492-49.725 50.021-52.379 50.473L-51.743 53.226H-27.48L-28.158 50.473-29.386 50.346C-32.125 50.035-33.98 49.527-34.954 48.822-35.928 48.116-36.612 46.875-37.008 45.096L-40.987 27.65Z" fill="#005891"/>
<path transform="matrix(1,0,0,-1,409.4656,130.31319)" d="M0 0C1.531-.511 2.798-1.364 3.799-2.562 4.8-3.759 5.664-5.615 6.391-8.128L6.921-10.042C7.706-13.027 8.314-15.161 8.747-16.447 9.179-17.733 9.753-18.523 10.47-18.818 11.186-19.112 12.339-19.329 13.93-19.466L13.458-21.409H3.122C2.866-19.78 2.587-18.264 2.282-16.859 1.979-15.456 1.394-13.075 .53-9.719-.216-6.812-1.114-4.737-2.164-3.489-3.215-2.244-4.643-1.62-6.449-1.62H-7.421L-10.542-15.431-10.748-16.638C-10.748-17.032-10.689-17.375-10.571-17.669-10.454-17.964-10.258-18.234-9.982-18.479-9.708-18.725-9.231-18.936-8.555-19.112-7.877-19.289-7.215-19.407-6.566-19.466L-7.009-21.409H-23.235L-22.793-19.466C-20.713-19.27-19.485-19.093-19.112-18.936-18.071-18.484-17.374-17.503-17.021-15.99L-9.953 14.489-9.836 15.431C-9.836 16.472-10.326 17.213-11.309 17.655-12.29 18.096-13.203 18.366-14.047 18.464L-13.635 20.378H2.533L2.121 18.464C1.079 18.366 .098 18.189-.824 17.934-1.747 17.679-2.391 17.306-2.753 16.815-3.116 16.324-3.401 15.661-3.606 14.827-3.813 13.993-4.908 9.276-6.891 .677H-5.418C-4.555 .677-3.833 .81-3.254 1.075-2.675 1.34-1.987 1.801-1.192 2.458-.396 3.117 .428 4.059 1.281 5.286 2.135 6.513 3.103 8.088 4.182 10.013 5.202 11.818 6.165 13.35 7.067 14.606 7.971 15.862 8.854 16.903 9.719 17.729 10.582 18.553 11.539 19.264 12.59 19.863 13.64 20.461 14.793 20.761 16.05 20.761 17.581 20.761 18.778 20.408 19.643 19.701 20.507 18.994 20.938 18.033 20.938 16.815 20.938 15.873 20.634 15.087 20.025 14.459 19.417 13.831 18.671 13.517 17.787 13.517 16.845 13.517 16.045 13.787 15.387 14.327 14.729 14.867 14.066 15.922 13.399 17.492 12.438 16.845 11.529 15.941 10.676 14.783 9.821 13.624 8.727 11.799 7.392 9.305 5.114 5.065 2.65 2.101 0 .412Z" fill="#005891"/>
<path transform="matrix(1,0,0,-1,503.5506,146.95139)" d="M0 0C0-.884 .402-1.552 1.208-2.003 1.404-2.121 1.979-2.283 2.931-2.489 3.883-2.695 4.535-2.809 4.889-2.828L4.477-4.771H-13.134L-12.722-2.828-11.75-2.739C-9.943-2.622-8.75-2.425-8.172-2.15-7.593-1.875-7.155-1.502-6.86-1.031-6.566-.56-6.351-.02-6.213 .588L.854 31.186 .973 32.187C.973 33.129 .472 33.802-.529 34.204-1.53 34.606-2.66 34.906-3.916 35.103L-3.474 37.017H14.136L13.753 35.103C12.261 34.984 10.857 34.739 9.542 34.367 8.324 33.973 7.54 33.011 7.187 31.48L.147 .912C.05 .559 0 .254 0 0M-18.199 9.217C-18.199 11.709-18.793 13.619-19.98 14.945-21.168 16.27-23.087 16.933-25.737 16.933-26.661 16.933-27.77 16.874-29.065 16.755L-32.629 1.207C-32.786 .618-32.864 .068-32.864-.442-32.864-1.169-32.467-1.719-31.672-2.091-30.877-2.465-29.802-2.651-28.446-2.651-26.347-2.651-24.535-2.135-23.014-1.105-21.492-.074-20.31 1.344-19.465 3.15-18.621 4.956-18.199 6.979-18.199 9.217M-24.177 19.348C-15.362 19.348-10.954 16.029-10.954 9.394-10.954 6.586-11.71 4.112-13.222 1.973-14.734-.167-16.825-1.827-19.495-3.004-22.165-4.182-25.129-4.771-28.388-4.771H-45.351L-44.908-2.828-44.025-2.739C-42.259-2.602-41.061-2.298-40.433-1.827-39.804-1.355-39.333-.442-39.02 .912L-32.01 31.127-31.893 32.069C-31.893 32.933-32.187 33.575-32.775 33.998-33.365 34.42-34.582 34.788-36.428 35.103L-35.986 37.017H-19.111L-19.583 35.103-20.437 35.015C-22.341 34.798-23.632 34.444-24.31 33.954-24.986 33.463-25.463 32.6-25.737 31.362L-28.506 19.23Z" fill="#005891"/>
<path transform="matrix(1,0,0,-1,572.5897,118.975299)" d="M0 0C0 2.179-.496 3.847-1.487 5.006-2.479 6.164-3.916 6.744-5.802 6.744H-8.806L-13.046-11.868H-10.248C-8.187-11.868-6.396-11.412-4.874-10.499-3.353-9.586-2.16-8.192-1.296-6.317-.433-4.442 0-2.336 0 0M7.215 .618C7.215-2.249 6.498-4.811 5.065-7.068 3.632-9.326 1.653-11.093-.869-12.369-3.392-13.645-6.116-14.283-9.041-14.283H-13.635L-16.462-26.769C-16.639-27.535-16.727-28.036-16.727-28.271-16.727-29.272-16.384-29.92-15.696-30.214-15.323-30.47-14.116-30.667-12.074-30.804L-12.486-32.747H-29.125L-28.713-30.804C-26.809-30.647-25.562-30.45-24.973-30.214-23.912-29.743-23.206-28.742-22.853-27.211L-15.873 3.269C-15.755 3.74-15.696 4.182-15.696 4.593-15.696 5.496-16.138 6.121-17.021 6.464-17.904 6.807-18.945 7.028-20.143 7.126L-19.79 9.041H-3.033C.107 9.041 2.601 8.279 4.446 6.758 6.292 5.236 7.215 3.19 7.215 .618" fill="#005891"/>
<path transform="matrix(1,0,0,-1,645.1287,121.5085)" d="M0 0H-2.238C-2.355 2.513-2.803 4.614-3.578 6.302-4.354 7.991-5.37 8.924-6.626 9.1-8.021 9.316-9.758 9.424-11.839 9.424H-15.431L-23.088-24.177C-23.226-24.648-23.294-25.051-23.294-25.384-23.294-26.327-22.97-26.99-22.322-27.372-21.674-27.755-20.311-28.054-18.229-28.271L-18.641-30.214H-36.074L-35.574-28.271-34.69-28.182C-33.002-28.064-31.893-27.858-31.363-27.564-30.833-27.27-30.431-26.882-30.156-26.4-29.881-25.92-29.665-25.346-29.508-24.678L-22.617 5.183C-22.46 5.909-22.382 6.41-22.382 6.686-22.382 7.647-22.813 8.33-23.678 8.732-24.541 9.134-25.641 9.443-26.976 9.66L-26.475 11.574H2.65Z" fill="#005891"/>
<path transform="matrix(1,0,0,-1,719.0662,146.95139)" d="M0 0C0-.884 .402-1.552 1.207-2.003 1.403-2.121 1.978-2.283 2.93-2.489 3.882-2.695 4.534-2.809 4.888-2.828L4.476-4.771H-13.134L-12.723-2.828-11.751-2.739C-9.944-2.622-8.751-2.425-8.172-2.15-7.594-1.875-7.156-1.502-6.861-1.031-6.567-.56-6.352-.02-6.214 .588L.854 31.186 .972 32.187C.972 33.129 .471 33.802-.53 34.204-1.531 34.606-2.661 34.906-3.917 35.103L-3.475 37.017H14.135L13.752 35.103C12.26 34.984 10.856 34.739 9.541 34.367 8.323 33.973 7.539 33.011 7.186 31.48L.146 .912C.049 .559 0 .254 0 0M-18.2 9.217C-18.2 11.709-18.794 13.619-19.981 14.945-21.169 16.27-23.088 16.933-25.738 16.933-26.662 16.933-27.771 16.874-29.066 16.755L-32.63 1.207C-32.787 .618-32.865 .068-32.865-.442-32.865-1.169-32.468-1.719-31.673-2.091-30.878-2.465-29.803-2.651-28.447-2.651-26.348-2.651-24.536-2.135-23.015-1.105-21.493-.074-20.311 1.344-19.466 3.15-18.622 4.956-18.2 6.979-18.2 9.217M-24.178 19.348C-15.363 19.348-10.955 16.029-10.955 9.394-10.955 6.586-11.711 4.112-13.223 1.973-14.735-.167-16.826-1.827-19.496-3.004-22.165-4.182-25.13-4.771-28.389-4.771H-45.352L-44.909-2.828-44.026-2.739C-42.26-2.602-41.062-2.298-40.433-1.827-39.805-1.355-39.334-.442-39.021 .912L-32.011 31.127-31.894 32.069C-31.894 32.933-32.188 33.575-32.776 33.998-33.366 34.42-34.583 34.788-36.429 35.103L-35.986 37.017H-19.112L-19.584 35.103-20.437 35.015C-22.342 34.798-23.633 34.444-24.311 33.954-24.987 33.463-25.464 32.6-25.738 31.362L-28.507 19.23Z" fill="#005891"/>
<path transform="matrix(1,0,0,-1,775.4822,152.6946)" d="M0 0C-2.553 0-4.855 .383-6.906 1.148-8.958 1.915-10.544 2.965-11.662 4.3-12.781 5.635-13.341 7.116-13.341 8.746-13.341 10.219-12.909 11.505-12.045 12.604-11.181 13.704-10.121 14.253-8.864 14.253-8.001 14.253-7.304 13.959-6.773 13.37-6.244 12.781-5.979 12.025-5.979 11.103-5.979 9.944-6.47 8.599-7.451 7.068L-8.099 6.037C-7.373 4.958-6.328 4.084-4.962 3.416-3.599 2.749-2.091 2.415-.442 2.415 1.697 2.415 3.646 2.925 5.403 3.946 7.16 4.967 8.524 6.4 9.497 8.246 10.469 10.091 10.955 12.211 10.955 14.607 10.955 16.864 10.331 18.572 9.085 19.73 7.837 20.889 6.056 21.468 3.739 21.468H-.384L.294 24.56H3.298C6.36 24.56 8.784 25.512 10.571 27.417 12.358 29.321 13.252 31.863 13.252 35.044 13.252 37.125 12.888 38.681 12.162 39.712 11.436 40.743 10.414 41.258 9.099 41.258 7.45 41.258 5.806 40.767 4.166 39.786 2.527 38.804 .932 37.327-.619 35.354-2.171 33.38-3.456 31.206-4.477 28.831H-6.892L-3.682 42.76H-1.325L-.442 40.787C.952 41.572 2.469 42.249 4.107 42.818 5.746 43.388 7.587 43.673 9.629 43.673 12.023 43.673 14.012 43.305 15.593 42.568 17.173 41.833 18.365 40.835 19.171 39.579 19.976 38.323 20.378 36.871 20.378 35.221 20.378 32.453 19.332 30.062 17.241 28.05 15.15 26.038 12.151 24.55 8.245 23.588L8.187 23.235C9.914 23.177 11.548 22.773 13.089 22.028 14.631 21.281 15.858 20.271 16.771 18.995 17.684 17.718 18.14 16.256 18.14 14.607 18.14 11.701 17.394 9.144 15.901 6.935 14.409 4.727 12.27 3.019 9.482 1.812 6.693 .604 3.533 0 0 0" fill="#005891"/>
<path transform="matrix(1,0,0,-1,362.281,109.002689)" d="M0 0C-24.044 4.333-48.805 6.603-74.096 6.603-117.669 6.603-159.666-.128-199.123-12.58-201.205-13.236-203.278-13.911-205.347-14.6L-199.647-18.452-133.135-63.417C-132.661-63.097-132.168-62.806-131.69-62.491-132.165-62.807-132.654-63.103-133.127-63.421L-123.617-69.893-113.879-64.718-30.338-21.848C-64.39-27.899-96.505-40.435-124.808-58.033L-192.898-16.387C-155.257-5.159-115.387 .9-74.096 .9-49.425 .9-25.261-1.265-1.773-5.393L-6.158-18.729-33.075-100.591C-64.074-90.629-97.117-85.228-131.427-85.228-142.062-85.228-152.571-85.758-162.94-86.769-193.942-89.789-223.647-97.22-251.432-108.421V-108.433C-225.102-99.47-197.251-93.806-168.373-91.89-161.149-91.412-153.867-91.143-146.522-91.143-107.82-91.143-70.703-97.916-36.272-110.315-29.991-112.577-23.803-115.028-17.708-117.659L-15.595-106.771 1.607-18.139 3.877-6.446 4.944-.947C3.297-.63 1.654-.298 0 0" fill="#005891"/>
<path transform="matrix(1,0,0,-1,310.2322,243.54709)" d="M0 0C0 0-21.1-2.817-45.1-4.235-61.682-5.216-79.649-4.962-92.998-4.962-159.258-4.962-214.884 8.431-230.35 26.521-231.298 24.721-231.853 22.883-231.992 21.016-211.836 2.583-157.222-10.633-92.998-10.633-57.729-10.633-25.36-6.646 0 0" fill="#005891"/>
<path transform="matrix(1,0,0,-1,75.6004,206.8225)" d="M0 0C0 27.856 97.616 45.207 97.616 45.207 37.765 39.189-5.671 21.226-5.671 0-5.671-3.671-4.37-7.245-1.911-10.677-1.203-8.866-.169-7.088 1.156-5.348 .395-3.597 0-1.812 0 0" fill="#005891"/>
<path transform="matrix(1,0,0,-1,219.8338,265.1526)" d="M0 0C-78.223 0-141.634 18.664-141.634 41.687-141.634 41.999-141.617 42.311-141.594 42.621-141.454 44.488-140.937 46.347-139.951 48.126-135.433 56.278-126.096 62.572-105.068 69.688-69.316 81.785-21.536 88.539-21.536 88.539-81.044 85.736-128.983 71.495-143.077 52.982-144.402 51.242-145.437 49.464-146.145 47.653-146.908 45.699-147.305 43.708-147.305 41.687-147.305 15.532-81.354-5.671 0-5.671 43.566-5.671 82.709 .412 109.678 10.077 109.678 10.077 82.919 4.366 51.694 2.033 33.906 .703 15.123 0 0 0" fill="#005891"/>
</g>
</g>
</svg>
